<mxfile host="app.diagrams.net" modified="2024-02-15T14:17:35.148Z" agent="Mozilla/5.0 (Macintosh; Intel Mac OS X 10.15; rv:122.0) Gecko/20100101 Firefox/122.0" etag="6BhGyeS5jKSR0nLFVzIA" version="23.1.4" type="device">
  <diagram id="VETX_M65RFimHMxo_6VA" name="Page-1">
    <mxGraphModel dx="3143" dy="4266" grid="1" gridSize="10" guides="1" tooltips="1" connect="1" arrows="1" fold="1" page="1" pageScale="1" pageWidth="827" pageHeight="1169" math="0" shadow="0">
      <root>
        <mxCell id="0" />
        <mxCell id="1" parent="0" />
        <mxCell id="YAuWAVg-vIqlQoeMwcdk-98" value="&lt;font style=&quot;font-size: 18px;&quot; face=&quot;Comic Sans MS&quot;&gt;MEMORY&lt;/font&gt;" style="rounded=0;whiteSpace=wrap;html=1;verticalAlign=top;strokeWidth=3;fillColor=#647687;strokeColor=#314354;fontColor=#ffffff;" parent="1" vertex="1">
          <mxGeometry x="460" y="300" width="740" height="270" as="geometry" />
        </mxCell>
        <mxCell id="YAuWAVg-vIqlQoeMwcdk-73" value="main function" style="rounded=1;whiteSpace=wrap;html=1;verticalAlign=top;align=left;spacingLeft=5;fillColor=#0050ef;strokeColor=#001DBC;fontColor=#ffffff;strokeWidth=2;fontSize=16;arcSize=3;" parent="1" vertex="1">
          <mxGeometry x="480" y="340" width="700" height="210" as="geometry" />
        </mxCell>
        <mxCell id="AWdPsdAmOmkkyqOufn5j-1" value="&lt;font style=&quot;font-size: 18px;&quot;&gt;Templates&lt;br&gt;&lt;/font&gt;" style="rounded=0;whiteSpace=wrap;html=1;fillColor=#647687;strokeColor=#314354;strokeWidth=3;verticalAlign=top;fontColor=#ffffff;fontFamily=Comic Sans MS;" parent="1" vertex="1">
          <mxGeometry x="460" y="580" width="740" height="180" as="geometry" />
        </mxCell>
        <mxCell id="AWdPsdAmOmkkyqOufn5j-2" value="" style="group" parent="1" vertex="1" connectable="0">
          <mxGeometry x="740" y="660" width="160" height="40" as="geometry" />
        </mxCell>
        <mxCell id="AWdPsdAmOmkkyqOufn5j-3" value="int *a" style="rounded=1;whiteSpace=wrap;html=1;strokeWidth=3;fillColor=#1ba1e2;fontColor=#ffffff;strokeColor=#006EAF;fontSize=16;align=left;spacingLeft=5;" parent="AWdPsdAmOmkkyqOufn5j-2" vertex="1">
          <mxGeometry width="160" height="40" as="geometry" />
        </mxCell>
        <mxCell id="AWdPsdAmOmkkyqOufn5j-4" value="" style="ellipse;whiteSpace=wrap;html=1;aspect=fixed;strokeColor=none;fillColor=#5ebdec;" parent="AWdPsdAmOmkkyqOufn5j-2" vertex="1">
          <mxGeometry x="129.99666666666667" y="11.428571428571427" width="17.142857142857142" height="17.142857142857142" as="geometry" />
        </mxCell>
        <mxCell id="nimxDePNCSVq4aicAcvI-155" value="123" style="rounded=1;whiteSpace=wrap;html=1;fillColor=#00CCCC;strokeColor=none;fontSize=16;fontColor=#FFFFFF;" parent="AWdPsdAmOmkkyqOufn5j-2" vertex="1">
          <mxGeometry x="58.4" y="5" width="61.6" height="30" as="geometry" />
        </mxCell>
        <mxCell id="AWdPsdAmOmkkyqOufn5j-5" value="" style="group" parent="1" vertex="1" connectable="0">
          <mxGeometry x="740" y="620" width="130" height="35" as="geometry" />
        </mxCell>
        <mxCell id="AWdPsdAmOmkkyqOufn5j-6" value="int a" style="rounded=1;whiteSpace=wrap;html=1;strokeWidth=3;fillColor=#008a00;fontColor=#ffffff;strokeColor=#005700;fontSize=16;align=left;spacingLeft=5;" parent="AWdPsdAmOmkkyqOufn5j-5" vertex="1">
          <mxGeometry width="130" height="35" as="geometry" />
        </mxCell>
        <mxCell id="AWdPsdAmOmkkyqOufn5j-7" value="123" style="rounded=1;whiteSpace=wrap;html=1;fillColor=#1fa417;strokeColor=none;fontSize=16;fontColor=#FFFFFF;" parent="AWdPsdAmOmkkyqOufn5j-5" vertex="1">
          <mxGeometry x="60" y="3.75" width="59.6" height="27.5" as="geometry" />
        </mxCell>
        <mxCell id="AWdPsdAmOmkkyqOufn5j-8" value="function" style="rounded=1;whiteSpace=wrap;html=1;verticalAlign=top;align=left;spacingLeft=5;fillColor=#0050ef;strokeColor=#001DBC;fontColor=#ffffff;strokeWidth=2;fontSize=16;arcSize=9;" parent="1" vertex="1">
          <mxGeometry x="480" y="620" width="160" height="80" as="geometry" />
        </mxCell>
        <mxCell id="AWdPsdAmOmkkyqOufn5j-9" value="" style="group;fontColor=#ffffff;" parent="1" vertex="1" connectable="0">
          <mxGeometry x="990" y="610" width="170" height="95" as="geometry" />
        </mxCell>
        <mxCell id="AWdPsdAmOmkkyqOufn5j-10" value="struct node" style="rounded=1;whiteSpace=wrap;html=1;strokeWidth=3;fillColor=#266bff;fontColor=#FFFFFF;strokeColor=#80a8ff;fontSize=16;arcSize=8;verticalAlign=top;" parent="AWdPsdAmOmkkyqOufn5j-9" vertex="1">
          <mxGeometry width="170" height="90" as="geometry" />
        </mxCell>
        <mxCell id="AWdPsdAmOmkkyqOufn5j-11" value="" style="group;fontColor=#ffffff;" parent="AWdPsdAmOmkkyqOufn5j-9" vertex="1" connectable="0">
          <mxGeometry y="30.5" width="170" height="29" as="geometry" />
        </mxCell>
        <mxCell id="AWdPsdAmOmkkyqOufn5j-12" value="int val" style="rounded=0;whiteSpace=wrap;html=1;fontFamily=Helvetica;fontSize=16;fontColor=#ffffff;fillColor=none;strokeWidth=2;strokeColor=#80a8ff;align=left;spacingLeft=5;" parent="AWdPsdAmOmkkyqOufn5j-11" vertex="1">
          <mxGeometry width="170" height="29" as="geometry" />
        </mxCell>
        <mxCell id="AWdPsdAmOmkkyqOufn5j-13" value="&lt;font style=&quot;font-size: 16px;&quot;&gt;123&lt;/font&gt;" style="rounded=1;whiteSpace=wrap;html=1;fontFamily=Helvetica;fontSize=11;fontColor=#ffffff;strokeColor=none;fillColor=#4280ff;" parent="AWdPsdAmOmkkyqOufn5j-11" vertex="1">
          <mxGeometry x="112" y="3" width="53.46" height="21" as="geometry" />
        </mxCell>
        <mxCell id="AWdPsdAmOmkkyqOufn5j-14" value="&lt;font style=&quot;font-size: 16px;&quot;&gt;struct node *next&lt;br&gt;&lt;/font&gt;" style="text;html=1;strokeColor=none;fillColor=none;align=left;verticalAlign=middle;whiteSpace=wrap;rounded=0;fontSize=11;fontFamily=Helvetica;fontColor=#FFFFFF;spacingLeft=5;" parent="AWdPsdAmOmkkyqOufn5j-9" vertex="1">
          <mxGeometry y="59.5" width="160" height="30" as="geometry" />
        </mxCell>
        <mxCell id="AWdPsdAmOmkkyqOufn5j-15" value="" style="ellipse;whiteSpace=wrap;html=1;aspect=fixed;fontFamily=Helvetica;fontSize=11;fontColor=default;strokeColor=none;fillColor=#4280ff;" parent="AWdPsdAmOmkkyqOufn5j-9" vertex="1">
          <mxGeometry x="140" y="64.5" width="20" height="20" as="geometry" />
        </mxCell>
        <mxCell id="AWdPsdAmOmkkyqOufn5j-16" value="" style="group" parent="1" vertex="1" connectable="0">
          <mxGeometry x="980" y="712.5" width="170" height="35" as="geometry" />
        </mxCell>
        <mxCell id="AWdPsdAmOmkkyqOufn5j-17" value="struct node *curr" style="rounded=1;whiteSpace=wrap;html=1;strokeWidth=3;fillColor=#1ba1e2;fontColor=#ffffff;strokeColor=#006EAF;fontSize=16;align=left;spacingLeft=5;" parent="AWdPsdAmOmkkyqOufn5j-16" vertex="1">
          <mxGeometry width="170" height="35" as="geometry" />
        </mxCell>
        <mxCell id="AWdPsdAmOmkkyqOufn5j-18" value="" style="ellipse;whiteSpace=wrap;html=1;aspect=fixed;strokeColor=none;fillColor=#5ebdec;" parent="AWdPsdAmOmkkyqOufn5j-16" vertex="1">
          <mxGeometry x="140" y="7.5" width="20" height="20" as="geometry" />
        </mxCell>
        <mxCell id="AWdPsdAmOmkkyqOufn5j-19" value="" style="group" parent="1" vertex="1" connectable="0">
          <mxGeometry x="480" y="710" width="290" height="35" as="geometry" />
        </mxCell>
        <mxCell id="AWdPsdAmOmkkyqOufn5j-20" value="int a[5]" style="rounded=1;whiteSpace=wrap;html=1;strokeWidth=3;fillColor=#008a00;fontColor=#ffffff;strokeColor=#005700;fontSize=16;align=left;spacingLeft=5;" parent="AWdPsdAmOmkkyqOufn5j-19" vertex="1">
          <mxGeometry width="284" height="35" as="geometry" />
        </mxCell>
        <mxCell id="AWdPsdAmOmkkyqOufn5j-21" value="" style="rounded=1;whiteSpace=wrap;html=1;fillColor=#1fa417;strokeColor=none;fontSize=16;fontColor=#FFFFFF;" parent="AWdPsdAmOmkkyqOufn5j-19" vertex="1">
          <mxGeometry x="68" y="3.75" width="40" height="27.5" as="geometry" />
        </mxCell>
        <mxCell id="AWdPsdAmOmkkyqOufn5j-22" value="" style="rounded=1;whiteSpace=wrap;html=1;fillColor=#1fa417;strokeColor=none;fontSize=16;fontColor=#FFFFFF;" parent="AWdPsdAmOmkkyqOufn5j-19" vertex="1">
          <mxGeometry x="111" y="3.75" width="40" height="27.5" as="geometry" />
        </mxCell>
        <mxCell id="AWdPsdAmOmkkyqOufn5j-23" value="" style="rounded=1;whiteSpace=wrap;html=1;fillColor=#1fa417;strokeColor=none;fontSize=16;fontColor=#FFFFFF;" parent="AWdPsdAmOmkkyqOufn5j-19" vertex="1">
          <mxGeometry x="154" y="3.75" width="40" height="27.5" as="geometry" />
        </mxCell>
        <mxCell id="AWdPsdAmOmkkyqOufn5j-24" value="" style="rounded=1;whiteSpace=wrap;html=1;fillColor=#1fa417;strokeColor=none;fontSize=16;fontColor=#FFFFFF;" parent="AWdPsdAmOmkkyqOufn5j-19" vertex="1">
          <mxGeometry x="197" y="3.75" width="40" height="27.5" as="geometry" />
        </mxCell>
        <mxCell id="AWdPsdAmOmkkyqOufn5j-25" value="" style="rounded=1;whiteSpace=wrap;html=1;fillColor=#1fa417;strokeColor=none;fontSize=16;fontColor=#FFFFFF;" parent="AWdPsdAmOmkkyqOufn5j-19" vertex="1">
          <mxGeometry x="240" y="3.75" width="40" height="27.5" as="geometry" />
        </mxCell>
        <mxCell id="AWdPsdAmOmkkyqOufn5j-26" value="" style="shape=cross;whiteSpace=wrap;html=1;rotation=45;fillColor=#ff0000;fontColor=#ffffff;strokeColor=#6F0000;" parent="1" vertex="1">
          <mxGeometry x="1160" y="715" width="30" height="30" as="geometry" />
        </mxCell>
        <mxCell id="nimxDePNCSVq4aicAcvI-1" value="" style="group" parent="1" vertex="1" connectable="0">
          <mxGeometry x="700" y="390" width="90" height="35" as="geometry" />
        </mxCell>
        <mxCell id="nimxDePNCSVq4aicAcvI-2" value="int a" style="rounded=1;whiteSpace=wrap;html=1;strokeWidth=3;fillColor=#008a00;fontColor=#ffffff;strokeColor=#005700;fontSize=16;align=left;spacingLeft=5;" parent="nimxDePNCSVq4aicAcvI-1" vertex="1">
          <mxGeometry width="90" height="35" as="geometry" />
        </mxCell>
        <mxCell id="nimxDePNCSVq4aicAcvI-3" value="234" style="rounded=1;whiteSpace=wrap;html=1;fillColor=#1fa417;strokeColor=none;fontSize=16;fontColor=#FFFFFF;" parent="nimxDePNCSVq4aicAcvI-1" vertex="1">
          <mxGeometry x="50.4" y="3.5" width="36" height="27.5" as="geometry" />
        </mxCell>
        <mxCell id="nimxDePNCSVq4aicAcvI-16" value="&lt;font color=&quot;#ffffff&quot;&gt;0x574&lt;/font&gt;" style="text;strokeColor=none;align=center;fillColor=none;html=1;verticalAlign=middle;whiteSpace=wrap;rounded=0;labelPosition=center;verticalLabelPosition=middle;" parent="nimxDePNCSVq4aicAcvI-1" vertex="1">
          <mxGeometry x="-9.600000000000023" y="-20" width="60" height="30" as="geometry" />
        </mxCell>
        <mxCell id="nimxDePNCSVq4aicAcvI-4" value="" style="group" parent="1" vertex="1" connectable="0">
          <mxGeometry x="720" y="470" width="90" height="35" as="geometry" />
        </mxCell>
        <mxCell id="nimxDePNCSVq4aicAcvI-5" value="int b" style="rounded=1;whiteSpace=wrap;html=1;strokeWidth=3;fillColor=#008a00;fontColor=#ffffff;strokeColor=#005700;fontSize=16;align=left;spacingLeft=5;" parent="nimxDePNCSVq4aicAcvI-4" vertex="1">
          <mxGeometry width="90" height="35" as="geometry" />
        </mxCell>
        <mxCell id="nimxDePNCSVq4aicAcvI-6" value="6" style="rounded=1;whiteSpace=wrap;html=1;fillColor=#1fa417;strokeColor=none;fontSize=16;fontColor=#FFFFFF;" parent="nimxDePNCSVq4aicAcvI-4" vertex="1">
          <mxGeometry x="50.4" y="3.5" width="36" height="27.5" as="geometry" />
        </mxCell>
        <mxCell id="nimxDePNCSVq4aicAcvI-28" value="&lt;font color=&quot;#ffffff&quot;&gt;0x574&lt;/font&gt;" style="text;strokeColor=none;align=center;fillColor=none;html=1;verticalAlign=middle;whiteSpace=wrap;rounded=0;labelPosition=center;verticalLabelPosition=middle;" parent="nimxDePNCSVq4aicAcvI-4" vertex="1">
          <mxGeometry x="-9.600000000000023" y="-20" width="60" height="30" as="geometry" />
        </mxCell>
        <mxCell id="nimxDePNCSVq4aicAcvI-7" value="" style="group" parent="1" vertex="1" connectable="0">
          <mxGeometry x="510" y="390" width="120" height="60" as="geometry" />
        </mxCell>
        <mxCell id="nimxDePNCSVq4aicAcvI-8" value="int *pa&lt;br&gt;0x386" style="rounded=1;whiteSpace=wrap;html=1;strokeWidth=3;fillColor=#1ba1e2;fontColor=#ffffff;strokeColor=#006EAF;fontSize=16;align=left;spacingLeft=5;" parent="nimxDePNCSVq4aicAcvI-7" vertex="1">
          <mxGeometry width="120" height="60" as="geometry" />
        </mxCell>
        <mxCell id="nimxDePNCSVq4aicAcvI-9" value="" style="ellipse;whiteSpace=wrap;html=1;aspect=fixed;strokeColor=none;fillColor=#5ebdec;" parent="nimxDePNCSVq4aicAcvI-7" vertex="1">
          <mxGeometry x="80" y="12.857142857142854" width="14.857142857142856" height="14.857142857142856" as="geometry" />
        </mxCell>
        <mxCell id="nimxDePNCSVq4aicAcvI-11" style="edgeStyle=orthogonalEdgeStyle;rounded=0;orthogonalLoop=1;jettySize=auto;html=1;entryX=0;entryY=0.5;entryDx=0;entryDy=0;strokeWidth=5;strokeColor=#E1D5E7;" parent="1" source="nimxDePNCSVq4aicAcvI-9" target="nimxDePNCSVq4aicAcvI-5" edge="1">
          <mxGeometry relative="1" as="geometry" />
        </mxCell>
        <mxCell id="nimxDePNCSVq4aicAcvI-17" value="" style="group" parent="1" vertex="1" connectable="0">
          <mxGeometry x="510" y="460" width="120" height="60" as="geometry" />
        </mxCell>
        <mxCell id="nimxDePNCSVq4aicAcvI-18" value="int *pb&lt;br&gt;0x386" style="rounded=1;whiteSpace=wrap;html=1;strokeWidth=3;fillColor=#1ba1e2;fontColor=#ffffff;strokeColor=#006EAF;fontSize=16;align=left;spacingLeft=5;" parent="nimxDePNCSVq4aicAcvI-17" vertex="1">
          <mxGeometry width="120" height="60" as="geometry" />
        </mxCell>
        <mxCell id="nimxDePNCSVq4aicAcvI-19" value="" style="ellipse;whiteSpace=wrap;html=1;aspect=fixed;strokeColor=none;fillColor=#5ebdec;" parent="nimxDePNCSVq4aicAcvI-17" vertex="1">
          <mxGeometry x="80" y="12.857142857142854" width="14.857142857142856" height="14.857142857142856" as="geometry" />
        </mxCell>
        <mxCell id="nimxDePNCSVq4aicAcvI-20" style="edgeStyle=orthogonalEdgeStyle;rounded=0;orthogonalLoop=1;jettySize=auto;html=1;entryX=0;entryY=0.5;entryDx=0;entryDy=0;fontSize=11;strokeWidth=5;strokeColor=#E1D5E7;" parent="1" source="nimxDePNCSVq4aicAcvI-19" target="nimxDePNCSVq4aicAcvI-5" edge="1">
          <mxGeometry relative="1" as="geometry" />
        </mxCell>
        <mxCell id="nimxDePNCSVq4aicAcvI-29" value="" style="group" parent="1" vertex="1" connectable="0">
          <mxGeometry x="830" y="390" width="90" height="35" as="geometry" />
        </mxCell>
        <mxCell id="nimxDePNCSVq4aicAcvI-30" value="int c" style="rounded=1;whiteSpace=wrap;html=1;strokeWidth=3;fillColor=#008a00;fontColor=#ffffff;strokeColor=#005700;fontSize=16;align=left;spacingLeft=5;" parent="nimxDePNCSVq4aicAcvI-29" vertex="1">
          <mxGeometry width="90" height="35" as="geometry" />
        </mxCell>
        <mxCell id="nimxDePNCSVq4aicAcvI-31" value="6" style="rounded=1;whiteSpace=wrap;html=1;fillColor=#1fa417;strokeColor=none;fontSize=16;fontColor=#FFFFFF;" parent="nimxDePNCSVq4aicAcvI-29" vertex="1">
          <mxGeometry x="50.4" y="3.5" width="36" height="27.5" as="geometry" />
        </mxCell>
        <mxCell id="nimxDePNCSVq4aicAcvI-32" value="&lt;font color=&quot;#ffffff&quot;&gt;0x286&lt;/font&gt;" style="text;strokeColor=none;align=center;fillColor=none;html=1;verticalAlign=middle;whiteSpace=wrap;rounded=0;labelPosition=center;verticalLabelPosition=middle;" parent="nimxDePNCSVq4aicAcvI-29" vertex="1">
          <mxGeometry x="-9.600000000000023" y="-20" width="60" height="30" as="geometry" />
        </mxCell>
        <mxCell id="nimxDePNCSVq4aicAcvI-33" value="&lt;font style=&quot;font-size: 18px;&quot; face=&quot;Comic Sans MS&quot;&gt;MEMORY&lt;/font&gt;" style="rounded=0;whiteSpace=wrap;html=1;verticalAlign=top;strokeWidth=3;fillColor=#647687;strokeColor=#314354;fontColor=#ffffff;" parent="1" vertex="1">
          <mxGeometry x="460" y="900" width="740" height="270" as="geometry" />
        </mxCell>
        <mxCell id="nimxDePNCSVq4aicAcvI-34" value="int main(void);" style="rounded=1;whiteSpace=wrap;html=1;verticalAlign=top;align=left;spacingLeft=5;fillColor=#0050ef;strokeColor=#001DBC;fontColor=#ffffff;strokeWidth=2;fontSize=16;arcSize=3;" parent="1" vertex="1">
          <mxGeometry x="480" y="940" width="340" height="210" as="geometry" />
        </mxCell>
        <mxCell id="nimxDePNCSVq4aicAcvI-35" value="&lt;font style=&quot;font-size: 18px;&quot;&gt;Templates&lt;br&gt;&lt;/font&gt;" style="rounded=0;whiteSpace=wrap;html=1;fillColor=#647687;strokeColor=#314354;strokeWidth=3;verticalAlign=top;fontColor=#ffffff;fontFamily=Comic Sans MS;" parent="1" vertex="1">
          <mxGeometry x="460" y="1180" width="740" height="180" as="geometry" />
        </mxCell>
        <mxCell id="nimxDePNCSVq4aicAcvI-36" value="" style="group" parent="1" vertex="1" connectable="0">
          <mxGeometry x="850" y="1265" width="90" height="35" as="geometry" />
        </mxCell>
        <mxCell id="nimxDePNCSVq4aicAcvI-37" value="int *a" style="rounded=1;whiteSpace=wrap;html=1;strokeWidth=3;fillColor=#1ba1e2;fontColor=#ffffff;strokeColor=#006EAF;fontSize=16;align=left;spacingLeft=5;" parent="nimxDePNCSVq4aicAcvI-36" vertex="1">
          <mxGeometry width="90" height="35" as="geometry" />
        </mxCell>
        <mxCell id="nimxDePNCSVq4aicAcvI-38" value="" style="ellipse;whiteSpace=wrap;html=1;aspect=fixed;strokeColor=none;fillColor=#5ebdec;" parent="nimxDePNCSVq4aicAcvI-36" vertex="1">
          <mxGeometry x="60" y="7.5" width="20" height="20" as="geometry" />
        </mxCell>
        <mxCell id="nimxDePNCSVq4aicAcvI-39" value="" style="group" parent="1" vertex="1" connectable="0">
          <mxGeometry x="850" y="1220" width="90" height="35" as="geometry" />
        </mxCell>
        <mxCell id="nimxDePNCSVq4aicAcvI-40" value="int a" style="rounded=1;whiteSpace=wrap;html=1;strokeWidth=3;fillColor=#008a00;fontColor=#ffffff;strokeColor=#005700;fontSize=16;align=left;spacingLeft=5;" parent="nimxDePNCSVq4aicAcvI-39" vertex="1">
          <mxGeometry width="90" height="35" as="geometry" />
        </mxCell>
        <mxCell id="nimxDePNCSVq4aicAcvI-41" value="123" style="rounded=1;whiteSpace=wrap;html=1;fillColor=#1fa417;strokeColor=none;fontSize=16;fontColor=#FFFFFF;" parent="nimxDePNCSVq4aicAcvI-39" vertex="1">
          <mxGeometry x="50.4" y="3.5" width="36" height="27.5" as="geometry" />
        </mxCell>
        <mxCell id="nimxDePNCSVq4aicAcvI-42" value="function" style="rounded=1;whiteSpace=wrap;html=1;verticalAlign=top;align=left;spacingLeft=5;fillColor=#0050ef;strokeColor=#001DBC;fontColor=#ffffff;strokeWidth=2;fontSize=16;arcSize=9;" parent="1" vertex="1">
          <mxGeometry x="480" y="1220" width="330" height="80" as="geometry" />
        </mxCell>
        <mxCell id="nimxDePNCSVq4aicAcvI-43" value="" style="group;fontColor=#ffffff;" parent="1" vertex="1" connectable="0">
          <mxGeometry x="990" y="1210" width="170" height="95" as="geometry" />
        </mxCell>
        <mxCell id="nimxDePNCSVq4aicAcvI-44" value="struct node" style="rounded=1;whiteSpace=wrap;html=1;strokeWidth=3;fillColor=#266bff;fontColor=#FFFFFF;strokeColor=#80a8ff;fontSize=16;arcSize=8;verticalAlign=top;" parent="nimxDePNCSVq4aicAcvI-43" vertex="1">
          <mxGeometry width="170" height="90" as="geometry" />
        </mxCell>
        <mxCell id="nimxDePNCSVq4aicAcvI-45" value="" style="group;fontColor=#ffffff;" parent="nimxDePNCSVq4aicAcvI-43" vertex="1" connectable="0">
          <mxGeometry y="30.5" width="170" height="29" as="geometry" />
        </mxCell>
        <mxCell id="nimxDePNCSVq4aicAcvI-46" value="int val" style="rounded=0;whiteSpace=wrap;html=1;fontFamily=Helvetica;fontSize=16;fontColor=#ffffff;fillColor=none;strokeWidth=2;strokeColor=#80a8ff;align=left;spacingLeft=5;" parent="nimxDePNCSVq4aicAcvI-45" vertex="1">
          <mxGeometry width="170" height="29" as="geometry" />
        </mxCell>
        <mxCell id="nimxDePNCSVq4aicAcvI-47" value="&lt;font style=&quot;font-size: 16px;&quot;&gt;123&lt;/font&gt;" style="rounded=1;whiteSpace=wrap;html=1;fontFamily=Helvetica;fontSize=11;fontColor=#ffffff;strokeColor=none;fillColor=#4280ff;" parent="nimxDePNCSVq4aicAcvI-45" vertex="1">
          <mxGeometry x="112" y="3" width="53.46" height="21" as="geometry" />
        </mxCell>
        <mxCell id="nimxDePNCSVq4aicAcvI-48" value="&lt;font style=&quot;font-size: 16px;&quot;&gt;struct node *next&lt;br&gt;&lt;/font&gt;" style="text;html=1;strokeColor=none;fillColor=none;align=left;verticalAlign=middle;whiteSpace=wrap;rounded=0;fontSize=11;fontFamily=Helvetica;fontColor=#FFFFFF;spacingLeft=5;" parent="nimxDePNCSVq4aicAcvI-43" vertex="1">
          <mxGeometry y="59.5" width="160" height="30" as="geometry" />
        </mxCell>
        <mxCell id="nimxDePNCSVq4aicAcvI-49" value="" style="ellipse;whiteSpace=wrap;html=1;aspect=fixed;fontFamily=Helvetica;fontSize=11;fontColor=default;strokeColor=none;fillColor=#4280ff;" parent="nimxDePNCSVq4aicAcvI-43" vertex="1">
          <mxGeometry x="140" y="64.5" width="20" height="20" as="geometry" />
        </mxCell>
        <mxCell id="nimxDePNCSVq4aicAcvI-50" value="" style="group" parent="1" vertex="1" connectable="0">
          <mxGeometry x="850" y="1310" width="170" height="35" as="geometry" />
        </mxCell>
        <mxCell id="nimxDePNCSVq4aicAcvI-51" value="struct node *curr" style="rounded=1;whiteSpace=wrap;html=1;strokeWidth=3;fillColor=#1ba1e2;fontColor=#ffffff;strokeColor=#006EAF;fontSize=16;align=left;spacingLeft=5;" parent="nimxDePNCSVq4aicAcvI-50" vertex="1">
          <mxGeometry width="170" height="35" as="geometry" />
        </mxCell>
        <mxCell id="nimxDePNCSVq4aicAcvI-52" value="" style="ellipse;whiteSpace=wrap;html=1;aspect=fixed;strokeColor=none;fillColor=#5ebdec;" parent="nimxDePNCSVq4aicAcvI-50" vertex="1">
          <mxGeometry x="140" y="7.5" width="20" height="20" as="geometry" />
        </mxCell>
        <mxCell id="nimxDePNCSVq4aicAcvI-53" value="" style="group" parent="1" vertex="1" connectable="0">
          <mxGeometry x="480" y="1310" width="290" height="35" as="geometry" />
        </mxCell>
        <mxCell id="nimxDePNCSVq4aicAcvI-54" value="int a[5]" style="rounded=1;whiteSpace=wrap;html=1;strokeWidth=3;fillColor=#008a00;fontColor=#ffffff;strokeColor=#005700;fontSize=16;align=left;spacingLeft=5;" parent="nimxDePNCSVq4aicAcvI-53" vertex="1">
          <mxGeometry width="284" height="35" as="geometry" />
        </mxCell>
        <mxCell id="nimxDePNCSVq4aicAcvI-55" value="" style="rounded=1;whiteSpace=wrap;html=1;fillColor=#1fa417;strokeColor=none;fontSize=16;fontColor=#FFFFFF;" parent="nimxDePNCSVq4aicAcvI-53" vertex="1">
          <mxGeometry x="68" y="3.75" width="40" height="27.5" as="geometry" />
        </mxCell>
        <mxCell id="nimxDePNCSVq4aicAcvI-56" value="" style="rounded=1;whiteSpace=wrap;html=1;fillColor=#1fa417;strokeColor=none;fontSize=16;fontColor=#FFFFFF;" parent="nimxDePNCSVq4aicAcvI-53" vertex="1">
          <mxGeometry x="111" y="3.75" width="40" height="27.5" as="geometry" />
        </mxCell>
        <mxCell id="nimxDePNCSVq4aicAcvI-57" value="" style="rounded=1;whiteSpace=wrap;html=1;fillColor=#1fa417;strokeColor=none;fontSize=16;fontColor=#FFFFFF;" parent="nimxDePNCSVq4aicAcvI-53" vertex="1">
          <mxGeometry x="154" y="3.75" width="40" height="27.5" as="geometry" />
        </mxCell>
        <mxCell id="nimxDePNCSVq4aicAcvI-58" value="" style="rounded=1;whiteSpace=wrap;html=1;fillColor=#1fa417;strokeColor=none;fontSize=16;fontColor=#FFFFFF;" parent="nimxDePNCSVq4aicAcvI-53" vertex="1">
          <mxGeometry x="197" y="3.75" width="40" height="27.5" as="geometry" />
        </mxCell>
        <mxCell id="nimxDePNCSVq4aicAcvI-59" value="" style="rounded=1;whiteSpace=wrap;html=1;fillColor=#1fa417;strokeColor=none;fontSize=16;fontColor=#FFFFFF;" parent="nimxDePNCSVq4aicAcvI-53" vertex="1">
          <mxGeometry x="240" y="3.75" width="40" height="27.5" as="geometry" />
        </mxCell>
        <mxCell id="nimxDePNCSVq4aicAcvI-60" value="" style="shape=cross;whiteSpace=wrap;html=1;rotation=45;fillColor=#ff0000;fontColor=#ffffff;strokeColor=#6F0000;" parent="1" vertex="1">
          <mxGeometry x="1090" y="1312.5" width="30" height="30" as="geometry" />
        </mxCell>
        <mxCell id="nimxDePNCSVq4aicAcvI-90" value="" style="group" parent="1" vertex="1" connectable="0">
          <mxGeometry x="510" y="980" width="90" height="35" as="geometry" />
        </mxCell>
        <mxCell id="nimxDePNCSVq4aicAcvI-91" value="int a" style="rounded=1;whiteSpace=wrap;html=1;strokeWidth=3;fillColor=#008a00;fontColor=#ffffff;strokeColor=#005700;fontSize=16;align=left;spacingLeft=5;" parent="nimxDePNCSVq4aicAcvI-90" vertex="1">
          <mxGeometry width="90" height="35" as="geometry" />
        </mxCell>
        <mxCell id="nimxDePNCSVq4aicAcvI-92" value="7" style="rounded=1;whiteSpace=wrap;html=1;fillColor=#1fa417;strokeColor=none;fontSize=16;fontColor=#FFFFFF;" parent="nimxDePNCSVq4aicAcvI-90" vertex="1">
          <mxGeometry x="50.4" y="3.5" width="36" height="27.5" as="geometry" />
        </mxCell>
        <mxCell id="nimxDePNCSVq4aicAcvI-93" value="" style="group" parent="1" vertex="1" connectable="0">
          <mxGeometry x="510" y="1027.5" width="90" height="35" as="geometry" />
        </mxCell>
        <mxCell id="nimxDePNCSVq4aicAcvI-94" value="int b" style="rounded=1;whiteSpace=wrap;html=1;strokeWidth=3;fillColor=#008a00;fontColor=#ffffff;strokeColor=#005700;fontSize=16;align=left;spacingLeft=5;" parent="nimxDePNCSVq4aicAcvI-93" vertex="1">
          <mxGeometry width="90" height="35" as="geometry" />
        </mxCell>
        <mxCell id="nimxDePNCSVq4aicAcvI-95" value="5" style="rounded=1;whiteSpace=wrap;html=1;fillColor=#1fa417;strokeColor=none;fontSize=16;fontColor=#FFFFFF;" parent="nimxDePNCSVq4aicAcvI-93" vertex="1">
          <mxGeometry x="50.4" y="3.5" width="36" height="27.5" as="geometry" />
        </mxCell>
        <mxCell id="nimxDePNCSVq4aicAcvI-96" value="&lt;font style=&quot;font-size: 18px;&quot; face=&quot;Comic Sans MS&quot;&gt;MEMORY&lt;/font&gt;" style="rounded=0;whiteSpace=wrap;html=1;verticalAlign=top;strokeWidth=3;fillColor=#647687;strokeColor=#314354;fontColor=#ffffff;" parent="1" vertex="1">
          <mxGeometry x="1280" y="900" width="740" height="270" as="geometry" />
        </mxCell>
        <mxCell id="nimxDePNCSVq4aicAcvI-97" value="int main(void);" style="rounded=1;whiteSpace=wrap;html=1;verticalAlign=top;align=left;spacingLeft=5;fillColor=#0050ef;strokeColor=#001DBC;fontColor=#ffffff;strokeWidth=2;fontSize=16;arcSize=3;" parent="1" vertex="1">
          <mxGeometry x="1300" y="940" width="340" height="210" as="geometry" />
        </mxCell>
        <mxCell id="nimxDePNCSVq4aicAcvI-98" value="&lt;font style=&quot;font-size: 18px;&quot;&gt;Templates&lt;br&gt;&lt;/font&gt;" style="rounded=0;whiteSpace=wrap;html=1;fillColor=#647687;strokeColor=#314354;strokeWidth=3;verticalAlign=top;fontColor=#ffffff;fontFamily=Comic Sans MS;" parent="1" vertex="1">
          <mxGeometry x="1280" y="1180" width="740" height="180" as="geometry" />
        </mxCell>
        <mxCell id="nimxDePNCSVq4aicAcvI-99" value="" style="group" parent="1" vertex="1" connectable="0">
          <mxGeometry x="1670" y="1265" width="90" height="35" as="geometry" />
        </mxCell>
        <mxCell id="nimxDePNCSVq4aicAcvI-100" value="int *a" style="rounded=1;whiteSpace=wrap;html=1;strokeWidth=3;fillColor=#1ba1e2;fontColor=#ffffff;strokeColor=#006EAF;fontSize=16;align=left;spacingLeft=5;" parent="nimxDePNCSVq4aicAcvI-99" vertex="1">
          <mxGeometry width="90" height="35" as="geometry" />
        </mxCell>
        <mxCell id="nimxDePNCSVq4aicAcvI-101" value="" style="ellipse;whiteSpace=wrap;html=1;aspect=fixed;strokeColor=none;fillColor=#5ebdec;" parent="nimxDePNCSVq4aicAcvI-99" vertex="1">
          <mxGeometry x="60" y="7.5" width="20" height="20" as="geometry" />
        </mxCell>
        <mxCell id="nimxDePNCSVq4aicAcvI-102" value="" style="group" parent="1" vertex="1" connectable="0">
          <mxGeometry x="1670" y="1220" width="90" height="35" as="geometry" />
        </mxCell>
        <mxCell id="nimxDePNCSVq4aicAcvI-103" value="int a" style="rounded=1;whiteSpace=wrap;html=1;strokeWidth=3;fillColor=#008a00;fontColor=#ffffff;strokeColor=#005700;fontSize=16;align=left;spacingLeft=5;" parent="nimxDePNCSVq4aicAcvI-102" vertex="1">
          <mxGeometry width="90" height="35" as="geometry" />
        </mxCell>
        <mxCell id="nimxDePNCSVq4aicAcvI-104" value="123" style="rounded=1;whiteSpace=wrap;html=1;fillColor=#1fa417;strokeColor=none;fontSize=16;fontColor=#FFFFFF;" parent="nimxDePNCSVq4aicAcvI-102" vertex="1">
          <mxGeometry x="50.4" y="3.5" width="36" height="27.5" as="geometry" />
        </mxCell>
        <mxCell id="nimxDePNCSVq4aicAcvI-105" value="function" style="rounded=1;whiteSpace=wrap;html=1;verticalAlign=top;align=left;spacingLeft=5;fillColor=#0050ef;strokeColor=#001DBC;fontColor=#ffffff;strokeWidth=2;fontSize=16;arcSize=9;" parent="1" vertex="1">
          <mxGeometry x="1300" y="1220" width="330" height="80" as="geometry" />
        </mxCell>
        <mxCell id="nimxDePNCSVq4aicAcvI-106" value="" style="group;fontColor=#ffffff;" parent="1" vertex="1" connectable="0">
          <mxGeometry x="1810" y="1210" width="170" height="95" as="geometry" />
        </mxCell>
        <mxCell id="nimxDePNCSVq4aicAcvI-107" value="struct node" style="rounded=1;whiteSpace=wrap;html=1;strokeWidth=3;fillColor=#266bff;fontColor=#FFFFFF;strokeColor=#80a8ff;fontSize=16;arcSize=8;verticalAlign=top;" parent="nimxDePNCSVq4aicAcvI-106" vertex="1">
          <mxGeometry width="170" height="90" as="geometry" />
        </mxCell>
        <mxCell id="nimxDePNCSVq4aicAcvI-108" value="" style="group;fontColor=#ffffff;" parent="nimxDePNCSVq4aicAcvI-106" vertex="1" connectable="0">
          <mxGeometry y="30.5" width="170" height="29" as="geometry" />
        </mxCell>
        <mxCell id="nimxDePNCSVq4aicAcvI-109" value="int val" style="rounded=0;whiteSpace=wrap;html=1;fontFamily=Helvetica;fontSize=16;fontColor=#ffffff;fillColor=none;strokeWidth=2;strokeColor=#80a8ff;align=left;spacingLeft=5;" parent="nimxDePNCSVq4aicAcvI-108" vertex="1">
          <mxGeometry width="170" height="29" as="geometry" />
        </mxCell>
        <mxCell id="nimxDePNCSVq4aicAcvI-110" value="&lt;font style=&quot;font-size: 16px;&quot;&gt;123&lt;/font&gt;" style="rounded=1;whiteSpace=wrap;html=1;fontFamily=Helvetica;fontSize=11;fontColor=#ffffff;strokeColor=none;fillColor=#4280ff;" parent="nimxDePNCSVq4aicAcvI-108" vertex="1">
          <mxGeometry x="112" y="3" width="53.46" height="21" as="geometry" />
        </mxCell>
        <mxCell id="nimxDePNCSVq4aicAcvI-111" value="&lt;font style=&quot;font-size: 16px;&quot;&gt;struct node *next&lt;br&gt;&lt;/font&gt;" style="text;html=1;strokeColor=none;fillColor=none;align=left;verticalAlign=middle;whiteSpace=wrap;rounded=0;fontSize=11;fontFamily=Helvetica;fontColor=#FFFFFF;spacingLeft=5;" parent="nimxDePNCSVq4aicAcvI-106" vertex="1">
          <mxGeometry y="59.5" width="160" height="30" as="geometry" />
        </mxCell>
        <mxCell id="nimxDePNCSVq4aicAcvI-112" value="" style="ellipse;whiteSpace=wrap;html=1;aspect=fixed;fontFamily=Helvetica;fontSize=11;fontColor=default;strokeColor=none;fillColor=#4280ff;" parent="nimxDePNCSVq4aicAcvI-106" vertex="1">
          <mxGeometry x="140" y="64.5" width="20" height="20" as="geometry" />
        </mxCell>
        <mxCell id="nimxDePNCSVq4aicAcvI-113" value="" style="group" parent="1" vertex="1" connectable="0">
          <mxGeometry x="1670" y="1310" width="170" height="35" as="geometry" />
        </mxCell>
        <mxCell id="nimxDePNCSVq4aicAcvI-114" value="struct node *curr" style="rounded=1;whiteSpace=wrap;html=1;strokeWidth=3;fillColor=#1ba1e2;fontColor=#ffffff;strokeColor=#006EAF;fontSize=16;align=left;spacingLeft=5;" parent="nimxDePNCSVq4aicAcvI-113" vertex="1">
          <mxGeometry width="170" height="35" as="geometry" />
        </mxCell>
        <mxCell id="nimxDePNCSVq4aicAcvI-115" value="" style="ellipse;whiteSpace=wrap;html=1;aspect=fixed;strokeColor=none;fillColor=#5ebdec;" parent="nimxDePNCSVq4aicAcvI-113" vertex="1">
          <mxGeometry x="140" y="7.5" width="20" height="20" as="geometry" />
        </mxCell>
        <mxCell id="nimxDePNCSVq4aicAcvI-116" value="" style="group" parent="1" vertex="1" connectable="0">
          <mxGeometry x="1300" y="1310" width="290" height="35" as="geometry" />
        </mxCell>
        <mxCell id="nimxDePNCSVq4aicAcvI-117" value="int a[5]" style="rounded=1;whiteSpace=wrap;html=1;strokeWidth=3;fillColor=#008a00;fontColor=#ffffff;strokeColor=#005700;fontSize=16;align=left;spacingLeft=5;" parent="nimxDePNCSVq4aicAcvI-116" vertex="1">
          <mxGeometry width="284" height="35" as="geometry" />
        </mxCell>
        <mxCell id="nimxDePNCSVq4aicAcvI-118" value="" style="rounded=1;whiteSpace=wrap;html=1;fillColor=#1fa417;strokeColor=none;fontSize=16;fontColor=#FFFFFF;" parent="nimxDePNCSVq4aicAcvI-116" vertex="1">
          <mxGeometry x="68" y="3.75" width="40" height="27.5" as="geometry" />
        </mxCell>
        <mxCell id="nimxDePNCSVq4aicAcvI-119" value="" style="rounded=1;whiteSpace=wrap;html=1;fillColor=#1fa417;strokeColor=none;fontSize=16;fontColor=#FFFFFF;" parent="nimxDePNCSVq4aicAcvI-116" vertex="1">
          <mxGeometry x="111" y="3.75" width="40" height="27.5" as="geometry" />
        </mxCell>
        <mxCell id="nimxDePNCSVq4aicAcvI-120" value="" style="rounded=1;whiteSpace=wrap;html=1;fillColor=#1fa417;strokeColor=none;fontSize=16;fontColor=#FFFFFF;" parent="nimxDePNCSVq4aicAcvI-116" vertex="1">
          <mxGeometry x="154" y="3.75" width="40" height="27.5" as="geometry" />
        </mxCell>
        <mxCell id="nimxDePNCSVq4aicAcvI-121" value="" style="rounded=1;whiteSpace=wrap;html=1;fillColor=#1fa417;strokeColor=none;fontSize=16;fontColor=#FFFFFF;" parent="nimxDePNCSVq4aicAcvI-116" vertex="1">
          <mxGeometry x="197" y="3.75" width="40" height="27.5" as="geometry" />
        </mxCell>
        <mxCell id="nimxDePNCSVq4aicAcvI-122" value="" style="rounded=1;whiteSpace=wrap;html=1;fillColor=#1fa417;strokeColor=none;fontSize=16;fontColor=#FFFFFF;" parent="nimxDePNCSVq4aicAcvI-116" vertex="1">
          <mxGeometry x="240" y="3.75" width="40" height="27.5" as="geometry" />
        </mxCell>
        <mxCell id="nimxDePNCSVq4aicAcvI-123" value="" style="shape=cross;whiteSpace=wrap;html=1;rotation=45;fillColor=#ff0000;fontColor=#ffffff;strokeColor=#6F0000;" parent="1" vertex="1">
          <mxGeometry x="1910" y="1312.5" width="30" height="30" as="geometry" />
        </mxCell>
        <mxCell id="nimxDePNCSVq4aicAcvI-124" value="void swap(int *a, int *b);" style="rounded=1;whiteSpace=wrap;html=1;verticalAlign=top;align=left;spacingLeft=5;fillColor=#0050ef;strokeColor=#001DBC;fontColor=#ffffff;strokeWidth=2;fontSize=16;arcSize=3;" parent="1" vertex="1">
          <mxGeometry x="1660" y="940" width="340" height="210" as="geometry" />
        </mxCell>
        <mxCell id="nimxDePNCSVq4aicAcvI-131" value="int temp" style="rounded=1;whiteSpace=wrap;html=1;strokeWidth=3;fillColor=#008a00;fontColor=#ffffff;strokeColor=#005700;fontSize=16;align=left;spacingLeft=5;" parent="1" vertex="1">
          <mxGeometry x="1690" y="1076.25" width="120" height="35" as="geometry" />
        </mxCell>
        <mxCell id="nimxDePNCSVq4aicAcvI-132" value="5" style="rounded=1;whiteSpace=wrap;html=1;fillColor=#1fa417;strokeColor=none;fontSize=16;fontColor=#FFFFFF;" parent="1" vertex="1">
          <mxGeometry x="1770" y="1080" width="36" height="27.5" as="geometry" />
        </mxCell>
        <mxCell id="nimxDePNCSVq4aicAcvI-133" value="" style="group" parent="1" vertex="1" connectable="0">
          <mxGeometry x="1330" y="980" width="90" height="35" as="geometry" />
        </mxCell>
        <mxCell id="nimxDePNCSVq4aicAcvI-134" value="int a" style="rounded=1;whiteSpace=wrap;html=1;strokeWidth=3;fillColor=#008a00;fontColor=#ffffff;strokeColor=#005700;fontSize=16;align=left;spacingLeft=5;" parent="nimxDePNCSVq4aicAcvI-133" vertex="1">
          <mxGeometry width="90" height="35" as="geometry" />
        </mxCell>
        <mxCell id="nimxDePNCSVq4aicAcvI-135" value="5" style="rounded=1;whiteSpace=wrap;html=1;fillColor=#1fa417;strokeColor=none;fontSize=16;fontColor=#FFFFFF;" parent="nimxDePNCSVq4aicAcvI-133" vertex="1">
          <mxGeometry x="50.4" y="3.5" width="36" height="27.5" as="geometry" />
        </mxCell>
        <mxCell id="nimxDePNCSVq4aicAcvI-136" value="" style="group" parent="1" vertex="1" connectable="0">
          <mxGeometry x="1330" y="1027.5" width="90" height="35" as="geometry" />
        </mxCell>
        <mxCell id="nimxDePNCSVq4aicAcvI-137" value="int b" style="rounded=1;whiteSpace=wrap;html=1;strokeWidth=3;fillColor=#008a00;fontColor=#ffffff;strokeColor=#005700;fontSize=16;align=left;spacingLeft=5;" parent="nimxDePNCSVq4aicAcvI-136" vertex="1">
          <mxGeometry width="90" height="35" as="geometry" />
        </mxCell>
        <mxCell id="nimxDePNCSVq4aicAcvI-138" value="7" style="rounded=1;whiteSpace=wrap;html=1;fillColor=#1fa417;strokeColor=none;fontSize=16;fontColor=#FFFFFF;" parent="nimxDePNCSVq4aicAcvI-136" vertex="1">
          <mxGeometry x="50.4" y="3.5" width="36" height="27.5" as="geometry" />
        </mxCell>
        <mxCell id="nimxDePNCSVq4aicAcvI-142" value="" style="group" parent="1" vertex="1" connectable="0">
          <mxGeometry x="1690" y="980" width="90" height="35" as="geometry" />
        </mxCell>
        <mxCell id="nimxDePNCSVq4aicAcvI-143" value="int *a" style="rounded=1;whiteSpace=wrap;html=1;strokeWidth=3;fillColor=#1ba1e2;fontColor=#ffffff;strokeColor=#006EAF;fontSize=16;align=left;spacingLeft=5;" parent="nimxDePNCSVq4aicAcvI-142" vertex="1">
          <mxGeometry width="90" height="35" as="geometry" />
        </mxCell>
        <mxCell id="nimxDePNCSVq4aicAcvI-144" value="" style="ellipse;whiteSpace=wrap;html=1;aspect=fixed;strokeColor=none;fillColor=#5ebdec;" parent="nimxDePNCSVq4aicAcvI-142" vertex="1">
          <mxGeometry x="60" y="7.5" width="20" height="20" as="geometry" />
        </mxCell>
        <mxCell id="nimxDePNCSVq4aicAcvI-146" value="" style="group" parent="1" vertex="1" connectable="0">
          <mxGeometry x="1690" y="1027.5" width="90" height="35" as="geometry" />
        </mxCell>
        <mxCell id="nimxDePNCSVq4aicAcvI-147" value="int *b" style="rounded=1;whiteSpace=wrap;html=1;strokeWidth=3;fillColor=#1ba1e2;fontColor=#ffffff;strokeColor=#006EAF;fontSize=16;align=left;spacingLeft=5;" parent="nimxDePNCSVq4aicAcvI-146" vertex="1">
          <mxGeometry width="90" height="35" as="geometry" />
        </mxCell>
        <mxCell id="nimxDePNCSVq4aicAcvI-148" value="" style="ellipse;whiteSpace=wrap;html=1;aspect=fixed;strokeColor=none;fillColor=#5ebdec;" parent="nimxDePNCSVq4aicAcvI-146" vertex="1">
          <mxGeometry x="60" y="7.5" width="20" height="20" as="geometry" />
        </mxCell>
        <mxCell id="OiGC2XvCSBzDqs8YYnXH-9" value="&lt;font style=&quot;font-size: 18px;&quot; face=&quot;Comic Sans MS&quot;&gt;MEMORY&lt;/font&gt;" style="rounded=0;whiteSpace=wrap;html=1;verticalAlign=top;strokeWidth=3;fillColor=#647687;strokeColor=#314354;fontColor=#ffffff;" parent="1" vertex="1">
          <mxGeometry x="440" y="1720" width="740" height="270" as="geometry" />
        </mxCell>
        <mxCell id="OiGC2XvCSBzDqs8YYnXH-10" value="main function" style="rounded=1;whiteSpace=wrap;html=1;verticalAlign=top;align=left;spacingLeft=5;fillColor=#0050ef;strokeColor=#001DBC;fontColor=#ffffff;strokeWidth=2;fontSize=16;arcSize=3;" parent="1" vertex="1">
          <mxGeometry x="460" y="1760" width="700" height="210" as="geometry" />
        </mxCell>
        <mxCell id="OiGC2XvCSBzDqs8YYnXH-60" value="&lt;font style=&quot;font-size: 36px;&quot;&gt;Pointers 1: Pointers&lt;br&gt;&lt;/font&gt;" style="text;html=1;align=center;verticalAlign=middle;resizable=0;points=[];autosize=1;strokeColor=none;fillColor=none;fontSize=11;fontFamily=Helvetica;fontColor=default;" parent="1" vertex="1">
          <mxGeometry x="360" y="1593" width="340" height="60" as="geometry" />
        </mxCell>
        <mxCell id="OiGC2XvCSBzDqs8YYnXH-63" value="&lt;font style=&quot;font-size: 18px;&quot; face=&quot;Comic Sans MS&quot;&gt;MEMORY&lt;/font&gt;" style="rounded=0;whiteSpace=wrap;html=1;verticalAlign=top;strokeWidth=3;fillColor=#647687;strokeColor=#314354;fontColor=#ffffff;" parent="1" vertex="1">
          <mxGeometry x="450" y="2467" width="740" height="270" as="geometry" />
        </mxCell>
        <mxCell id="OiGC2XvCSBzDqs8YYnXH-64" value="main function" style="rounded=1;whiteSpace=wrap;html=1;verticalAlign=top;align=left;spacingLeft=5;fillColor=#0050ef;strokeColor=#001DBC;fontColor=#ffffff;strokeWidth=2;fontSize=16;arcSize=3;" parent="1" vertex="1">
          <mxGeometry x="470" y="2507" width="700" height="210" as="geometry" />
        </mxCell>
        <mxCell id="OiGC2XvCSBzDqs8YYnXH-89" value="&lt;font style=&quot;font-size: 36px;&quot;&gt;Pointers 2: Swap&lt;br&gt;&lt;/font&gt;" style="text;html=1;align=center;verticalAlign=middle;resizable=0;points=[];autosize=1;strokeColor=none;fillColor=none;fontSize=11;fontFamily=Helvetica;fontColor=default;" parent="1" vertex="1">
          <mxGeometry x="390" y="2340" width="300" height="60" as="geometry" />
        </mxCell>
        <mxCell id="OiGC2XvCSBzDqs8YYnXH-96" value="" style="group" parent="1" vertex="1" connectable="0">
          <mxGeometry x="753" y="1800" width="136.39999999999998" height="58.75" as="geometry" />
        </mxCell>
        <mxCell id="OiGC2XvCSBzDqs8YYnXH-97" value="" style="group" parent="OiGC2XvCSBzDqs8YYnXH-96" vertex="1" connectable="0">
          <mxGeometry x="6.399999999999977" y="23.75" width="130" height="35" as="geometry" />
        </mxCell>
        <mxCell id="OiGC2XvCSBzDqs8YYnXH-98" value="" style="group" parent="OiGC2XvCSBzDqs8YYnXH-97" vertex="1" connectable="0">
          <mxGeometry width="130" height="35" as="geometry" />
        </mxCell>
        <mxCell id="OiGC2XvCSBzDqs8YYnXH-99" value="int a" style="rounded=1;whiteSpace=wrap;html=1;strokeWidth=3;fillColor=#008a00;fontColor=#ffffff;strokeColor=#005700;fontSize=16;align=left;spacingLeft=5;" parent="OiGC2XvCSBzDqs8YYnXH-98" vertex="1">
          <mxGeometry width="130" height="35" as="geometry" />
        </mxCell>
        <mxCell id="OiGC2XvCSBzDqs8YYnXH-100" value="" style="rounded=1;whiteSpace=wrap;html=1;fillColor=#1fa417;strokeColor=none;fontSize=16;fontColor=#FFFFFF;" parent="OiGC2XvCSBzDqs8YYnXH-98" vertex="1">
          <mxGeometry x="60" y="3.75" width="59.6" height="27.5" as="geometry" />
        </mxCell>
        <mxCell id="OiGC2XvCSBzDqs8YYnXH-101" value="&lt;font style=&quot;font-size: 15px;&quot; color=&quot;#ffffff&quot;&gt;0x382&lt;/font&gt;" style="text;strokeColor=none;align=center;fillColor=none;html=1;verticalAlign=middle;whiteSpace=wrap;rounded=0;" parent="OiGC2XvCSBzDqs8YYnXH-96" vertex="1">
          <mxGeometry width="60" height="30" as="geometry" />
        </mxCell>
        <mxCell id="OiGC2XvCSBzDqs8YYnXH-102" value="" style="group" parent="1" vertex="1" connectable="0">
          <mxGeometry x="753" y="1870" width="136.39999999999998" height="58.75" as="geometry" />
        </mxCell>
        <mxCell id="OiGC2XvCSBzDqs8YYnXH-103" value="" style="group" parent="OiGC2XvCSBzDqs8YYnXH-102" vertex="1" connectable="0">
          <mxGeometry x="6.399999999999977" y="23.75" width="130" height="35" as="geometry" />
        </mxCell>
        <mxCell id="OiGC2XvCSBzDqs8YYnXH-104" value="" style="group" parent="OiGC2XvCSBzDqs8YYnXH-103" vertex="1" connectable="0">
          <mxGeometry width="130" height="35" as="geometry" />
        </mxCell>
        <mxCell id="OiGC2XvCSBzDqs8YYnXH-105" value="int b" style="rounded=1;whiteSpace=wrap;html=1;strokeWidth=3;fillColor=#008a00;fontColor=#ffffff;strokeColor=#005700;fontSize=16;align=left;spacingLeft=5;" parent="OiGC2XvCSBzDqs8YYnXH-104" vertex="1">
          <mxGeometry width="130" height="35" as="geometry" />
        </mxCell>
        <mxCell id="OiGC2XvCSBzDqs8YYnXH-106" value="" style="rounded=1;whiteSpace=wrap;html=1;fillColor=#1fa417;strokeColor=none;fontSize=16;fontColor=#FFFFFF;" parent="OiGC2XvCSBzDqs8YYnXH-104" vertex="1">
          <mxGeometry x="60" y="3.75" width="59.6" height="27.5" as="geometry" />
        </mxCell>
        <mxCell id="OiGC2XvCSBzDqs8YYnXH-107" value="&lt;font style=&quot;font-size: 15px;&quot; color=&quot;#ffffff&quot;&gt;0x839&lt;/font&gt;" style="text;strokeColor=none;align=center;fillColor=none;html=1;verticalAlign=middle;whiteSpace=wrap;rounded=0;" parent="OiGC2XvCSBzDqs8YYnXH-102" vertex="1">
          <mxGeometry width="60" height="30" as="geometry" />
        </mxCell>
        <mxCell id="OiGC2XvCSBzDqs8YYnXH-109" value="" style="group" parent="1" vertex="1" connectable="0">
          <mxGeometry x="535" y="1830" width="160" height="40" as="geometry" />
        </mxCell>
        <mxCell id="OiGC2XvCSBzDqs8YYnXH-110" value="int *pa" style="rounded=1;whiteSpace=wrap;html=1;strokeWidth=3;fillColor=#1ba1e2;fontColor=#ffffff;strokeColor=#006EAF;fontSize=16;align=left;spacingLeft=5;" parent="OiGC2XvCSBzDqs8YYnXH-109" vertex="1">
          <mxGeometry width="160" height="40" as="geometry" />
        </mxCell>
        <mxCell id="OiGC2XvCSBzDqs8YYnXH-111" value="" style="ellipse;whiteSpace=wrap;html=1;aspect=fixed;strokeColor=none;fillColor=#5ebdec;" parent="OiGC2XvCSBzDqs8YYnXH-109" vertex="1">
          <mxGeometry x="129.99666666666667" y="11.428571428571427" width="17.142857142857142" height="17.142857142857142" as="geometry" />
        </mxCell>
        <mxCell id="OiGC2XvCSBzDqs8YYnXH-112" value="" style="rounded=1;whiteSpace=wrap;html=1;fillColor=#00CCCC;strokeColor=none;fontSize=16;fontColor=#FFFFFF;" parent="OiGC2XvCSBzDqs8YYnXH-109" vertex="1">
          <mxGeometry x="58.4" y="5" width="61.6" height="30" as="geometry" />
        </mxCell>
        <mxCell id="OiGC2XvCSBzDqs8YYnXH-115" value="" style="group" parent="1" vertex="1" connectable="0">
          <mxGeometry x="530" y="1890" width="160" height="40" as="geometry" />
        </mxCell>
        <mxCell id="OiGC2XvCSBzDqs8YYnXH-116" value="int *pb" style="rounded=1;whiteSpace=wrap;html=1;strokeWidth=3;fillColor=#1ba1e2;fontColor=#ffffff;strokeColor=#006EAF;fontSize=16;align=left;spacingLeft=5;" parent="OiGC2XvCSBzDqs8YYnXH-115" vertex="1">
          <mxGeometry width="160" height="40" as="geometry" />
        </mxCell>
        <mxCell id="OiGC2XvCSBzDqs8YYnXH-117" value="" style="ellipse;whiteSpace=wrap;html=1;aspect=fixed;strokeColor=none;fillColor=#5ebdec;" parent="OiGC2XvCSBzDqs8YYnXH-115" vertex="1">
          <mxGeometry x="129.99666666666667" y="11.428571428571427" width="17.142857142857142" height="17.142857142857142" as="geometry" />
        </mxCell>
        <mxCell id="OiGC2XvCSBzDqs8YYnXH-118" value="" style="rounded=1;whiteSpace=wrap;html=1;fillColor=#00CCCC;strokeColor=none;fontSize=16;fontColor=#FFFFFF;" parent="OiGC2XvCSBzDqs8YYnXH-115" vertex="1">
          <mxGeometry x="58.4" y="5" width="61.6" height="30" as="geometry" />
        </mxCell>
        <mxCell id="OiGC2XvCSBzDqs8YYnXH-121" value="" style="group" parent="1" vertex="1" connectable="0">
          <mxGeometry x="920" y="1870" width="136.39999999999998" height="58.75" as="geometry" />
        </mxCell>
        <mxCell id="OiGC2XvCSBzDqs8YYnXH-122" value="" style="group" parent="OiGC2XvCSBzDqs8YYnXH-121" vertex="1" connectable="0">
          <mxGeometry x="6.399999999999977" y="23.75" width="130" height="35" as="geometry" />
        </mxCell>
        <mxCell id="OiGC2XvCSBzDqs8YYnXH-123" value="" style="group" parent="OiGC2XvCSBzDqs8YYnXH-122" vertex="1" connectable="0">
          <mxGeometry width="130" height="35" as="geometry" />
        </mxCell>
        <mxCell id="OiGC2XvCSBzDqs8YYnXH-124" value="int c" style="rounded=1;whiteSpace=wrap;html=1;strokeWidth=3;fillColor=#008a00;fontColor=#ffffff;strokeColor=#005700;fontSize=16;align=left;spacingLeft=5;" parent="OiGC2XvCSBzDqs8YYnXH-123" vertex="1">
          <mxGeometry width="130" height="35" as="geometry" />
        </mxCell>
        <mxCell id="OiGC2XvCSBzDqs8YYnXH-125" value="" style="rounded=1;whiteSpace=wrap;html=1;fillColor=#1fa417;strokeColor=none;fontSize=16;fontColor=#FFFFFF;" parent="OiGC2XvCSBzDqs8YYnXH-123" vertex="1">
          <mxGeometry x="60" y="3.75" width="59.6" height="27.5" as="geometry" />
        </mxCell>
        <mxCell id="OiGC2XvCSBzDqs8YYnXH-126" value="&lt;font style=&quot;font-size: 15px;&quot; color=&quot;#ffffff&quot;&gt;0x983&lt;/font&gt;" style="text;strokeColor=none;align=center;fillColor=none;html=1;verticalAlign=middle;whiteSpace=wrap;rounded=0;" parent="OiGC2XvCSBzDqs8YYnXH-121" vertex="1">
          <mxGeometry width="60" height="30" as="geometry" />
        </mxCell>
        <mxCell id="OiGC2XvCSBzDqs8YYnXH-128" value="" style="group" parent="1" vertex="1" connectable="0">
          <mxGeometry x="490" y="2550" width="136.39999999999998" height="58.75" as="geometry" />
        </mxCell>
        <mxCell id="OiGC2XvCSBzDqs8YYnXH-129" value="" style="group" parent="OiGC2XvCSBzDqs8YYnXH-128" vertex="1" connectable="0">
          <mxGeometry x="6.399999999999977" y="23.75" width="130" height="35" as="geometry" />
        </mxCell>
        <mxCell id="OiGC2XvCSBzDqs8YYnXH-130" value="" style="group" parent="OiGC2XvCSBzDqs8YYnXH-129" vertex="1" connectable="0">
          <mxGeometry width="130" height="35" as="geometry" />
        </mxCell>
        <mxCell id="OiGC2XvCSBzDqs8YYnXH-131" value="int a" style="rounded=1;whiteSpace=wrap;html=1;strokeWidth=3;fillColor=#008a00;fontColor=#ffffff;strokeColor=#005700;fontSize=16;align=left;spacingLeft=5;" parent="OiGC2XvCSBzDqs8YYnXH-130" vertex="1">
          <mxGeometry width="130" height="35" as="geometry" />
        </mxCell>
        <mxCell id="OiGC2XvCSBzDqs8YYnXH-132" value="" style="rounded=1;whiteSpace=wrap;html=1;fillColor=#1fa417;strokeColor=none;fontSize=16;fontColor=#FFFFFF;" parent="OiGC2XvCSBzDqs8YYnXH-130" vertex="1">
          <mxGeometry x="60" y="3.75" width="59.6" height="27.5" as="geometry" />
        </mxCell>
        <mxCell id="OiGC2XvCSBzDqs8YYnXH-133" value="&lt;font style=&quot;font-size: 15px;&quot; color=&quot;#ffffff&quot;&gt;0x437&lt;/font&gt;" style="text;strokeColor=none;align=center;fillColor=none;html=1;verticalAlign=middle;whiteSpace=wrap;rounded=0;" parent="OiGC2XvCSBzDqs8YYnXH-128" vertex="1">
          <mxGeometry width="60" height="30" as="geometry" />
        </mxCell>
        <mxCell id="OiGC2XvCSBzDqs8YYnXH-134" value="" style="group" parent="1" vertex="1" connectable="0">
          <mxGeometry x="490" y="2630" width="136.39999999999998" height="58.75" as="geometry" />
        </mxCell>
        <mxCell id="OiGC2XvCSBzDqs8YYnXH-135" value="" style="group" parent="OiGC2XvCSBzDqs8YYnXH-134" vertex="1" connectable="0">
          <mxGeometry x="6.399999999999977" y="23.75" width="130" height="35" as="geometry" />
        </mxCell>
        <mxCell id="OiGC2XvCSBzDqs8YYnXH-136" value="" style="group" parent="OiGC2XvCSBzDqs8YYnXH-135" vertex="1" connectable="0">
          <mxGeometry width="130" height="35" as="geometry" />
        </mxCell>
        <mxCell id="OiGC2XvCSBzDqs8YYnXH-137" value="int b" style="rounded=1;whiteSpace=wrap;html=1;strokeWidth=3;fillColor=#008a00;fontColor=#ffffff;strokeColor=#005700;fontSize=16;align=left;spacingLeft=5;" parent="OiGC2XvCSBzDqs8YYnXH-136" vertex="1">
          <mxGeometry width="130" height="35" as="geometry" />
        </mxCell>
        <mxCell id="OiGC2XvCSBzDqs8YYnXH-138" value="" style="rounded=1;whiteSpace=wrap;html=1;fillColor=#1fa417;strokeColor=none;fontSize=16;fontColor=#FFFFFF;" parent="OiGC2XvCSBzDqs8YYnXH-136" vertex="1">
          <mxGeometry x="60" y="3.75" width="59.6" height="27.5" as="geometry" />
        </mxCell>
        <mxCell id="OiGC2XvCSBzDqs8YYnXH-139" value="&lt;font style=&quot;font-size: 15px;&quot; color=&quot;#ffffff&quot;&gt;0x389&lt;/font&gt;" style="text;strokeColor=none;align=center;fillColor=none;html=1;verticalAlign=middle;whiteSpace=wrap;rounded=0;" parent="OiGC2XvCSBzDqs8YYnXH-134" vertex="1">
          <mxGeometry width="60" height="30" as="geometry" />
        </mxCell>
        <mxCell id="OiGC2XvCSBzDqs8YYnXH-140" value="void swap(int a, int b)" style="rounded=1;whiteSpace=wrap;html=1;verticalAlign=top;align=left;spacingLeft=5;fillColor=#0050ef;strokeColor=#001DBC;fontColor=#ffffff;strokeWidth=2;fontSize=16;arcSize=9;" parent="1" vertex="1">
          <mxGeometry x="695" y="2560" width="325" height="150" as="geometry" />
        </mxCell>
        <mxCell id="OiGC2XvCSBzDqs8YYnXH-141" value="" style="group" parent="1" vertex="1" connectable="0">
          <mxGeometry x="700" y="2580" width="136.39999999999998" height="58.75" as="geometry" />
        </mxCell>
        <mxCell id="OiGC2XvCSBzDqs8YYnXH-142" value="" style="group" parent="OiGC2XvCSBzDqs8YYnXH-141" vertex="1" connectable="0">
          <mxGeometry x="6.399999999999977" y="23.75" width="130" height="35" as="geometry" />
        </mxCell>
        <mxCell id="OiGC2XvCSBzDqs8YYnXH-143" value="" style="group" parent="OiGC2XvCSBzDqs8YYnXH-142" vertex="1" connectable="0">
          <mxGeometry width="130" height="35" as="geometry" />
        </mxCell>
        <mxCell id="OiGC2XvCSBzDqs8YYnXH-144" value="int a" style="rounded=1;whiteSpace=wrap;html=1;strokeWidth=3;fillColor=#008a00;fontColor=#ffffff;strokeColor=#005700;fontSize=16;align=left;spacingLeft=5;" parent="OiGC2XvCSBzDqs8YYnXH-143" vertex="1">
          <mxGeometry width="130" height="35" as="geometry" />
        </mxCell>
        <mxCell id="OiGC2XvCSBzDqs8YYnXH-145" value="" style="rounded=1;whiteSpace=wrap;html=1;fillColor=#1fa417;strokeColor=none;fontSize=16;fontColor=#FFFFFF;" parent="OiGC2XvCSBzDqs8YYnXH-143" vertex="1">
          <mxGeometry x="60" y="3.75" width="59.6" height="27.5" as="geometry" />
        </mxCell>
        <mxCell id="OiGC2XvCSBzDqs8YYnXH-146" value="&lt;font style=&quot;font-size: 15px;&quot; color=&quot;#ffffff&quot;&gt;0x334&lt;/font&gt;" style="text;strokeColor=none;align=center;fillColor=none;html=1;verticalAlign=middle;whiteSpace=wrap;rounded=0;" parent="OiGC2XvCSBzDqs8YYnXH-141" vertex="1">
          <mxGeometry width="60" height="30" as="geometry" />
        </mxCell>
        <mxCell id="OiGC2XvCSBzDqs8YYnXH-147" value="" style="group" parent="1" vertex="1" connectable="0">
          <mxGeometry x="700" y="2640" width="136.39999999999998" height="58.75" as="geometry" />
        </mxCell>
        <mxCell id="OiGC2XvCSBzDqs8YYnXH-148" value="" style="group" parent="OiGC2XvCSBzDqs8YYnXH-147" vertex="1" connectable="0">
          <mxGeometry x="6.399999999999977" y="23.75" width="130" height="35" as="geometry" />
        </mxCell>
        <mxCell id="OiGC2XvCSBzDqs8YYnXH-149" value="" style="group" parent="OiGC2XvCSBzDqs8YYnXH-148" vertex="1" connectable="0">
          <mxGeometry width="130" height="35" as="geometry" />
        </mxCell>
        <mxCell id="OiGC2XvCSBzDqs8YYnXH-150" value="int b" style="rounded=1;whiteSpace=wrap;html=1;strokeWidth=3;fillColor=#008a00;fontColor=#ffffff;strokeColor=#005700;fontSize=16;align=left;spacingLeft=5;" parent="OiGC2XvCSBzDqs8YYnXH-149" vertex="1">
          <mxGeometry width="130" height="35" as="geometry" />
        </mxCell>
        <mxCell id="OiGC2XvCSBzDqs8YYnXH-151" value="" style="rounded=1;whiteSpace=wrap;html=1;fillColor=#1fa417;strokeColor=none;fontSize=16;fontColor=#FFFFFF;" parent="OiGC2XvCSBzDqs8YYnXH-149" vertex="1">
          <mxGeometry x="60" y="3.75" width="59.6" height="27.5" as="geometry" />
        </mxCell>
        <mxCell id="OiGC2XvCSBzDqs8YYnXH-152" value="&lt;font style=&quot;font-size: 15px;&quot; color=&quot;#ffffff&quot;&gt;0x745&lt;/font&gt;" style="text;strokeColor=none;align=center;fillColor=none;html=1;verticalAlign=middle;whiteSpace=wrap;rounded=0;" parent="OiGC2XvCSBzDqs8YYnXH-147" vertex="1">
          <mxGeometry width="60" height="30" as="geometry" />
        </mxCell>
        <mxCell id="OiGC2XvCSBzDqs8YYnXH-153" value="" style="group" parent="1" vertex="1" connectable="0">
          <mxGeometry x="850" y="2630" width="160" height="58.75" as="geometry" />
        </mxCell>
        <mxCell id="OiGC2XvCSBzDqs8YYnXH-154" value="" style="group" parent="OiGC2XvCSBzDqs8YYnXH-153" vertex="1" connectable="0">
          <mxGeometry x="7.04" y="23.75" width="152.96" height="35" as="geometry" />
        </mxCell>
        <mxCell id="OiGC2XvCSBzDqs8YYnXH-155" value="" style="group" parent="OiGC2XvCSBzDqs8YYnXH-154" vertex="1" connectable="0">
          <mxGeometry width="152.96" height="35" as="geometry" />
        </mxCell>
        <mxCell id="OiGC2XvCSBzDqs8YYnXH-156" value="int temp" style="rounded=1;whiteSpace=wrap;html=1;strokeWidth=3;fillColor=#008a00;fontColor=#ffffff;strokeColor=#005700;fontSize=16;align=left;spacingLeft=5;" parent="OiGC2XvCSBzDqs8YYnXH-155" vertex="1">
          <mxGeometry width="152.96" height="35" as="geometry" />
        </mxCell>
        <mxCell id="OiGC2XvCSBzDqs8YYnXH-157" value="" style="rounded=1;whiteSpace=wrap;html=1;fillColor=#1fa417;strokeColor=none;fontSize=16;fontColor=#FFFFFF;" parent="OiGC2XvCSBzDqs8YYnXH-155" vertex="1">
          <mxGeometry x="72.95698622358975" y="3.75" width="70.12627692307693" height="27.5" as="geometry" />
        </mxCell>
        <mxCell id="OiGC2XvCSBzDqs8YYnXH-158" value="&lt;font style=&quot;font-size: 15px;&quot; color=&quot;#ffffff&quot;&gt;0x923&lt;/font&gt;" style="text;strokeColor=none;align=center;fillColor=none;html=1;verticalAlign=middle;whiteSpace=wrap;rounded=0;" parent="OiGC2XvCSBzDqs8YYnXH-153" vertex="1">
          <mxGeometry width="65.98240469208211" height="30" as="geometry" />
        </mxCell>
        <mxCell id="OiGC2XvCSBzDqs8YYnXH-159" value="&lt;font style=&quot;font-size: 18px;&quot; face=&quot;Comic Sans MS&quot;&gt;MEMORY&lt;/font&gt;" style="rounded=0;whiteSpace=wrap;html=1;verticalAlign=top;strokeWidth=3;fillColor=#647687;strokeColor=#314354;fontColor=#ffffff;" parent="1" vertex="1">
          <mxGeometry x="450" y="3020" width="740" height="270" as="geometry" />
        </mxCell>
        <mxCell id="OiGC2XvCSBzDqs8YYnXH-160" value="main function" style="rounded=1;whiteSpace=wrap;html=1;verticalAlign=top;align=left;spacingLeft=5;fillColor=#0050ef;strokeColor=#001DBC;fontColor=#ffffff;strokeWidth=2;fontSize=16;arcSize=3;" parent="1" vertex="1">
          <mxGeometry x="470" y="3060" width="700" height="210" as="geometry" />
        </mxCell>
        <mxCell id="OiGC2XvCSBzDqs8YYnXH-191" value="" style="group" parent="1" vertex="1" connectable="0">
          <mxGeometry x="490" y="3103" width="136.39999999999998" height="58.75" as="geometry" />
        </mxCell>
        <mxCell id="OiGC2XvCSBzDqs8YYnXH-192" value="" style="group" parent="OiGC2XvCSBzDqs8YYnXH-191" vertex="1" connectable="0">
          <mxGeometry x="6.399999999999977" y="23.75" width="130" height="35" as="geometry" />
        </mxCell>
        <mxCell id="OiGC2XvCSBzDqs8YYnXH-193" value="" style="group" parent="OiGC2XvCSBzDqs8YYnXH-192" vertex="1" connectable="0">
          <mxGeometry width="130" height="35" as="geometry" />
        </mxCell>
        <mxCell id="OiGC2XvCSBzDqs8YYnXH-194" value="int a" style="rounded=1;whiteSpace=wrap;html=1;strokeWidth=3;fillColor=#008a00;fontColor=#ffffff;strokeColor=#005700;fontSize=16;align=left;spacingLeft=5;" parent="OiGC2XvCSBzDqs8YYnXH-193" vertex="1">
          <mxGeometry width="130" height="35" as="geometry" />
        </mxCell>
        <mxCell id="OiGC2XvCSBzDqs8YYnXH-195" value="7" style="rounded=1;whiteSpace=wrap;html=1;fillColor=#1fa417;strokeColor=none;fontSize=16;fontColor=#FFFFFF;" parent="OiGC2XvCSBzDqs8YYnXH-193" vertex="1">
          <mxGeometry x="60" y="3.75" width="59.6" height="27.5" as="geometry" />
        </mxCell>
        <mxCell id="OiGC2XvCSBzDqs8YYnXH-196" value="&lt;font style=&quot;font-size: 15px;&quot; color=&quot;#ffffff&quot;&gt;0x437&lt;/font&gt;" style="text;strokeColor=none;align=center;fillColor=none;html=1;verticalAlign=middle;whiteSpace=wrap;rounded=0;" parent="OiGC2XvCSBzDqs8YYnXH-191" vertex="1">
          <mxGeometry width="60" height="30" as="geometry" />
        </mxCell>
        <mxCell id="OiGC2XvCSBzDqs8YYnXH-197" value="" style="group" parent="1" vertex="1" connectable="0">
          <mxGeometry x="490" y="3183" width="136.39999999999998" height="58.75" as="geometry" />
        </mxCell>
        <mxCell id="OiGC2XvCSBzDqs8YYnXH-198" value="" style="group" parent="OiGC2XvCSBzDqs8YYnXH-197" vertex="1" connectable="0">
          <mxGeometry x="6.399999999999977" y="23.75" width="130" height="35" as="geometry" />
        </mxCell>
        <mxCell id="OiGC2XvCSBzDqs8YYnXH-199" value="" style="group" parent="OiGC2XvCSBzDqs8YYnXH-198" vertex="1" connectable="0">
          <mxGeometry width="130" height="35" as="geometry" />
        </mxCell>
        <mxCell id="OiGC2XvCSBzDqs8YYnXH-200" value="int b" style="rounded=1;whiteSpace=wrap;html=1;strokeWidth=3;fillColor=#008a00;fontColor=#ffffff;strokeColor=#005700;fontSize=16;align=left;spacingLeft=5;" parent="OiGC2XvCSBzDqs8YYnXH-199" vertex="1">
          <mxGeometry width="130" height="35" as="geometry" />
        </mxCell>
        <mxCell id="OiGC2XvCSBzDqs8YYnXH-201" value="5" style="rounded=1;whiteSpace=wrap;html=1;fillColor=#1fa417;strokeColor=none;fontSize=16;fontColor=#FFFFFF;" parent="OiGC2XvCSBzDqs8YYnXH-199" vertex="1">
          <mxGeometry x="60" y="3.75" width="59.6" height="27.5" as="geometry" />
        </mxCell>
        <mxCell id="OiGC2XvCSBzDqs8YYnXH-202" value="&lt;font style=&quot;font-size: 15px;&quot; color=&quot;#ffffff&quot;&gt;0x389&lt;/font&gt;" style="text;strokeColor=none;align=center;fillColor=none;html=1;verticalAlign=middle;whiteSpace=wrap;rounded=0;" parent="OiGC2XvCSBzDqs8YYnXH-197" vertex="1">
          <mxGeometry width="60" height="30" as="geometry" />
        </mxCell>
        <mxCell id="Bvw_2WkxBIfK0Tm7wsNR-1" value="&lt;font style=&quot;font-size: 18px;&quot; face=&quot;Comic Sans MS&quot;&gt;MEMORY&lt;/font&gt;" style="rounded=0;whiteSpace=wrap;html=1;verticalAlign=top;strokeWidth=3;fillColor=#647687;strokeColor=#314354;fontColor=#ffffff;" vertex="1" parent="1">
          <mxGeometry x="460" y="-310" width="740" height="270" as="geometry" />
        </mxCell>
        <mxCell id="Bvw_2WkxBIfK0Tm7wsNR-2" value="main function" style="rounded=1;whiteSpace=wrap;html=1;verticalAlign=top;align=left;spacingLeft=5;fillColor=#0050ef;strokeColor=#001DBC;fontColor=#ffffff;strokeWidth=2;fontSize=16;arcSize=3;" vertex="1" parent="1">
          <mxGeometry x="480" y="-270" width="700" height="210" as="geometry" />
        </mxCell>
        <mxCell id="Bvw_2WkxBIfK0Tm7wsNR-3" value="&lt;font style=&quot;font-size: 18px;&quot;&gt;Templates&lt;br&gt;&lt;/font&gt;" style="rounded=0;whiteSpace=wrap;html=1;fillColor=#647687;strokeColor=#314354;strokeWidth=3;verticalAlign=top;fontColor=#ffffff;fontFamily=Comic Sans MS;" vertex="1" parent="1">
          <mxGeometry x="460" y="-30" width="740" height="180" as="geometry" />
        </mxCell>
        <mxCell id="Bvw_2WkxBIfK0Tm7wsNR-4" value="" style="group" vertex="1" connectable="0" parent="1">
          <mxGeometry x="786.4000000000001" y="63.75" width="160" height="40" as="geometry" />
        </mxCell>
        <mxCell id="Bvw_2WkxBIfK0Tm7wsNR-5" value="int *a" style="rounded=1;whiteSpace=wrap;html=1;strokeWidth=3;fillColor=#1ba1e2;fontColor=#ffffff;strokeColor=#006EAF;fontSize=16;align=left;spacingLeft=5;" vertex="1" parent="Bvw_2WkxBIfK0Tm7wsNR-4">
          <mxGeometry width="160" height="40" as="geometry" />
        </mxCell>
        <mxCell id="Bvw_2WkxBIfK0Tm7wsNR-6" value="" style="ellipse;whiteSpace=wrap;html=1;aspect=fixed;strokeColor=none;fillColor=#5ebdec;" vertex="1" parent="Bvw_2WkxBIfK0Tm7wsNR-4">
          <mxGeometry x="129.99666666666667" y="11.428571428571427" width="17.142857142857142" height="17.142857142857142" as="geometry" />
        </mxCell>
        <mxCell id="Bvw_2WkxBIfK0Tm7wsNR-7" value="123" style="rounded=1;whiteSpace=wrap;html=1;fillColor=#00CCCC;strokeColor=none;fontSize=16;fontColor=#FFFFFF;" vertex="1" parent="Bvw_2WkxBIfK0Tm7wsNR-4">
          <mxGeometry x="58.4" y="5" width="61.6" height="30" as="geometry" />
        </mxCell>
        <mxCell id="Bvw_2WkxBIfK0Tm7wsNR-8" value="" style="group" vertex="1" connectable="0" parent="1">
          <mxGeometry x="786.4000000000001" y="23.75" width="130" height="35" as="geometry" />
        </mxCell>
        <mxCell id="Bvw_2WkxBIfK0Tm7wsNR-9" value="" style="group" vertex="1" connectable="0" parent="Bvw_2WkxBIfK0Tm7wsNR-8">
          <mxGeometry width="130" height="35" as="geometry" />
        </mxCell>
        <mxCell id="Bvw_2WkxBIfK0Tm7wsNR-10" value="int a" style="rounded=1;whiteSpace=wrap;html=1;strokeWidth=3;fillColor=#008a00;fontColor=#ffffff;strokeColor=#005700;fontSize=16;align=left;spacingLeft=5;" vertex="1" parent="Bvw_2WkxBIfK0Tm7wsNR-9">
          <mxGeometry width="130" height="35" as="geometry" />
        </mxCell>
        <mxCell id="Bvw_2WkxBIfK0Tm7wsNR-11" value="123" style="rounded=1;whiteSpace=wrap;html=1;fillColor=#1fa417;strokeColor=none;fontSize=16;fontColor=#FFFFFF;" vertex="1" parent="Bvw_2WkxBIfK0Tm7wsNR-9">
          <mxGeometry x="60" y="3.75" width="59.6" height="27.5" as="geometry" />
        </mxCell>
        <mxCell id="Bvw_2WkxBIfK0Tm7wsNR-12" value="function" style="rounded=1;whiteSpace=wrap;html=1;verticalAlign=top;align=left;spacingLeft=5;fillColor=#0050ef;strokeColor=#001DBC;fontColor=#ffffff;strokeWidth=2;fontSize=16;arcSize=9;" vertex="1" parent="1">
          <mxGeometry x="480" y="10" width="160" height="80" as="geometry" />
        </mxCell>
        <mxCell id="Bvw_2WkxBIfK0Tm7wsNR-13" value="" style="group;fontColor=#ffffff;" vertex="1" connectable="0" parent="1">
          <mxGeometry x="990" width="170" height="95" as="geometry" />
        </mxCell>
        <mxCell id="Bvw_2WkxBIfK0Tm7wsNR-14" value="struct node" style="rounded=1;whiteSpace=wrap;html=1;strokeWidth=3;fillColor=#266bff;fontColor=#FFFFFF;strokeColor=#80a8ff;fontSize=16;arcSize=8;verticalAlign=top;" vertex="1" parent="Bvw_2WkxBIfK0Tm7wsNR-13">
          <mxGeometry width="170" height="90" as="geometry" />
        </mxCell>
        <mxCell id="Bvw_2WkxBIfK0Tm7wsNR-15" value="" style="group;fontColor=#ffffff;" vertex="1" connectable="0" parent="Bvw_2WkxBIfK0Tm7wsNR-13">
          <mxGeometry y="30.5" width="170" height="29" as="geometry" />
        </mxCell>
        <mxCell id="Bvw_2WkxBIfK0Tm7wsNR-16" value="int val" style="rounded=0;whiteSpace=wrap;html=1;fontFamily=Helvetica;fontSize=16;fontColor=#ffffff;fillColor=none;strokeWidth=2;strokeColor=#80a8ff;align=left;spacingLeft=5;" vertex="1" parent="Bvw_2WkxBIfK0Tm7wsNR-15">
          <mxGeometry width="170" height="29" as="geometry" />
        </mxCell>
        <mxCell id="Bvw_2WkxBIfK0Tm7wsNR-17" value="&lt;font style=&quot;font-size: 16px;&quot;&gt;123&lt;/font&gt;" style="rounded=1;whiteSpace=wrap;html=1;fontFamily=Helvetica;fontSize=11;fontColor=#ffffff;strokeColor=none;fillColor=#4280ff;" vertex="1" parent="Bvw_2WkxBIfK0Tm7wsNR-15">
          <mxGeometry x="112" y="3" width="53.46" height="21" as="geometry" />
        </mxCell>
        <mxCell id="Bvw_2WkxBIfK0Tm7wsNR-18" value="&lt;font style=&quot;font-size: 16px;&quot;&gt;struct node *next&lt;br&gt;&lt;/font&gt;" style="text;html=1;strokeColor=none;fillColor=none;align=left;verticalAlign=middle;whiteSpace=wrap;rounded=0;fontSize=11;fontFamily=Helvetica;fontColor=#FFFFFF;spacingLeft=5;" vertex="1" parent="Bvw_2WkxBIfK0Tm7wsNR-13">
          <mxGeometry y="59.5" width="160" height="30" as="geometry" />
        </mxCell>
        <mxCell id="Bvw_2WkxBIfK0Tm7wsNR-19" value="" style="ellipse;whiteSpace=wrap;html=1;aspect=fixed;fontFamily=Helvetica;fontSize=11;fontColor=default;strokeColor=none;fillColor=#4280ff;" vertex="1" parent="Bvw_2WkxBIfK0Tm7wsNR-13">
          <mxGeometry x="140" y="64.5" width="20" height="20" as="geometry" />
        </mxCell>
        <mxCell id="Bvw_2WkxBIfK0Tm7wsNR-20" value="" style="group" vertex="1" connectable="0" parent="1">
          <mxGeometry x="980" y="102.5" width="170" height="35" as="geometry" />
        </mxCell>
        <mxCell id="Bvw_2WkxBIfK0Tm7wsNR-21" value="struct node *curr" style="rounded=1;whiteSpace=wrap;html=1;strokeWidth=3;fillColor=#1ba1e2;fontColor=#ffffff;strokeColor=#006EAF;fontSize=16;align=left;spacingLeft=5;" vertex="1" parent="Bvw_2WkxBIfK0Tm7wsNR-20">
          <mxGeometry width="170" height="35" as="geometry" />
        </mxCell>
        <mxCell id="Bvw_2WkxBIfK0Tm7wsNR-22" value="" style="ellipse;whiteSpace=wrap;html=1;aspect=fixed;strokeColor=none;fillColor=#5ebdec;" vertex="1" parent="Bvw_2WkxBIfK0Tm7wsNR-20">
          <mxGeometry x="140" y="7.5" width="20" height="20" as="geometry" />
        </mxCell>
        <mxCell id="Bvw_2WkxBIfK0Tm7wsNR-23" value="" style="group" vertex="1" connectable="0" parent="1">
          <mxGeometry x="480" y="100" width="290" height="35" as="geometry" />
        </mxCell>
        <mxCell id="Bvw_2WkxBIfK0Tm7wsNR-24" value="int a[5]" style="rounded=1;whiteSpace=wrap;html=1;strokeWidth=3;fillColor=#008a00;fontColor=#ffffff;strokeColor=#005700;fontSize=16;align=left;spacingLeft=5;" vertex="1" parent="Bvw_2WkxBIfK0Tm7wsNR-23">
          <mxGeometry width="284" height="35" as="geometry" />
        </mxCell>
        <mxCell id="Bvw_2WkxBIfK0Tm7wsNR-25" value="" style="rounded=1;whiteSpace=wrap;html=1;fillColor=#1fa417;strokeColor=none;fontSize=16;fontColor=#FFFFFF;" vertex="1" parent="Bvw_2WkxBIfK0Tm7wsNR-23">
          <mxGeometry x="68" y="3.75" width="40" height="27.5" as="geometry" />
        </mxCell>
        <mxCell id="Bvw_2WkxBIfK0Tm7wsNR-26" value="" style="rounded=1;whiteSpace=wrap;html=1;fillColor=#1fa417;strokeColor=none;fontSize=16;fontColor=#FFFFFF;" vertex="1" parent="Bvw_2WkxBIfK0Tm7wsNR-23">
          <mxGeometry x="111" y="3.75" width="40" height="27.5" as="geometry" />
        </mxCell>
        <mxCell id="Bvw_2WkxBIfK0Tm7wsNR-27" value="" style="rounded=1;whiteSpace=wrap;html=1;fillColor=#1fa417;strokeColor=none;fontSize=16;fontColor=#FFFFFF;" vertex="1" parent="Bvw_2WkxBIfK0Tm7wsNR-23">
          <mxGeometry x="154" y="3.75" width="40" height="27.5" as="geometry" />
        </mxCell>
        <mxCell id="Bvw_2WkxBIfK0Tm7wsNR-28" value="" style="rounded=1;whiteSpace=wrap;html=1;fillColor=#1fa417;strokeColor=none;fontSize=16;fontColor=#FFFFFF;" vertex="1" parent="Bvw_2WkxBIfK0Tm7wsNR-23">
          <mxGeometry x="197" y="3.75" width="40" height="27.5" as="geometry" />
        </mxCell>
        <mxCell id="Bvw_2WkxBIfK0Tm7wsNR-29" value="" style="rounded=1;whiteSpace=wrap;html=1;fillColor=#1fa417;strokeColor=none;fontSize=16;fontColor=#FFFFFF;" vertex="1" parent="Bvw_2WkxBIfK0Tm7wsNR-23">
          <mxGeometry x="240" y="3.75" width="40" height="27.5" as="geometry" />
        </mxCell>
        <mxCell id="Bvw_2WkxBIfK0Tm7wsNR-30" value="" style="shape=cross;whiteSpace=wrap;html=1;rotation=45;fillColor=#ff0000;fontColor=#ffffff;strokeColor=#6F0000;" vertex="1" parent="1">
          <mxGeometry x="1160" y="105" width="30" height="30" as="geometry" />
        </mxCell>
        <mxCell id="Bvw_2WkxBIfK0Tm7wsNR-31" value="" style="group" vertex="1" connectable="0" parent="1">
          <mxGeometry x="500" y="-220" width="130" height="35" as="geometry" />
        </mxCell>
        <mxCell id="Bvw_2WkxBIfK0Tm7wsNR-32" value="int a" style="rounded=1;whiteSpace=wrap;html=1;strokeWidth=3;fillColor=#008a00;fontColor=#ffffff;strokeColor=#005700;fontSize=16;align=left;spacingLeft=5;" vertex="1" parent="Bvw_2WkxBIfK0Tm7wsNR-31">
          <mxGeometry width="130" height="35" as="geometry" />
        </mxCell>
        <mxCell id="Bvw_2WkxBIfK0Tm7wsNR-33" value="234" style="rounded=1;whiteSpace=wrap;html=1;fillColor=#1fa417;strokeColor=none;fontSize=16;fontColor=#FFFFFF;" vertex="1" parent="Bvw_2WkxBIfK0Tm7wsNR-31">
          <mxGeometry x="60" y="3.75" width="59.6" height="27.5" as="geometry" />
        </mxCell>
        <mxCell id="Bvw_2WkxBIfK0Tm7wsNR-34" value="" style="group" vertex="1" connectable="0" parent="1">
          <mxGeometry x="500" y="-150" width="130" height="35" as="geometry" />
        </mxCell>
        <mxCell id="Bvw_2WkxBIfK0Tm7wsNR-35" value="int b" style="rounded=1;whiteSpace=wrap;html=1;strokeWidth=3;fillColor=#008a00;fontColor=#ffffff;strokeColor=#005700;fontSize=16;align=left;spacingLeft=5;" vertex="1" parent="Bvw_2WkxBIfK0Tm7wsNR-34">
          <mxGeometry width="130" height="35" as="geometry" />
        </mxCell>
        <mxCell id="Bvw_2WkxBIfK0Tm7wsNR-36" value="345" style="rounded=1;whiteSpace=wrap;html=1;fillColor=#1fa417;strokeColor=none;fontSize=16;fontColor=#FFFFFF;" vertex="1" parent="Bvw_2WkxBIfK0Tm7wsNR-34">
          <mxGeometry x="60" y="3.75" width="59.6" height="27.5" as="geometry" />
        </mxCell>
        <mxCell id="Bvw_2WkxBIfK0Tm7wsNR-37" value="&lt;font style=&quot;font-size: 15px;&quot; color=&quot;#ffffff&quot;&gt;0x643&lt;/font&gt;" style="text;strokeColor=none;align=center;fillColor=none;html=1;verticalAlign=middle;whiteSpace=wrap;rounded=0;" vertex="1" parent="Bvw_2WkxBIfK0Tm7wsNR-34">
          <mxGeometry x="-10" y="-20" width="60" height="30" as="geometry" />
        </mxCell>
        <mxCell id="Bvw_2WkxBIfK0Tm7wsNR-38" value="" style="group" vertex="1" connectable="0" parent="1">
          <mxGeometry x="740" y="-220" width="160" height="40" as="geometry" />
        </mxCell>
        <mxCell id="Bvw_2WkxBIfK0Tm7wsNR-39" value="int *pa" style="rounded=1;whiteSpace=wrap;html=1;strokeWidth=3;fillColor=#1ba1e2;fontColor=#ffffff;strokeColor=#006EAF;fontSize=16;align=left;spacingLeft=5;" vertex="1" parent="Bvw_2WkxBIfK0Tm7wsNR-38">
          <mxGeometry width="160" height="40" as="geometry" />
        </mxCell>
        <mxCell id="Bvw_2WkxBIfK0Tm7wsNR-40" value="" style="ellipse;whiteSpace=wrap;html=1;aspect=fixed;strokeColor=none;fillColor=#5ebdec;" vertex="1" parent="Bvw_2WkxBIfK0Tm7wsNR-38">
          <mxGeometry x="129.99666666666667" y="11.428571428571427" width="17.142857142857142" height="17.142857142857142" as="geometry" />
        </mxCell>
        <mxCell id="Bvw_2WkxBIfK0Tm7wsNR-41" value="0x643" style="rounded=1;whiteSpace=wrap;html=1;fillColor=#00CCCC;strokeColor=none;fontSize=16;fontColor=#FFFFFF;" vertex="1" parent="Bvw_2WkxBIfK0Tm7wsNR-38">
          <mxGeometry x="58.4" y="5" width="61.6" height="30" as="geometry" />
        </mxCell>
        <mxCell id="Bvw_2WkxBIfK0Tm7wsNR-42" value="" style="group" vertex="1" connectable="0" parent="1">
          <mxGeometry x="740" y="-150" width="160" height="40" as="geometry" />
        </mxCell>
        <mxCell id="Bvw_2WkxBIfK0Tm7wsNR-43" style="edgeStyle=orthogonalEdgeStyle;rounded=0;orthogonalLoop=1;jettySize=auto;html=1;strokeWidth=7;strokeColor=#FFFFFF;" edge="1" parent="Bvw_2WkxBIfK0Tm7wsNR-42" source="Bvw_2WkxBIfK0Tm7wsNR-44">
          <mxGeometry relative="1" as="geometry">
            <mxPoint x="-110" y="20" as="targetPoint" />
          </mxGeometry>
        </mxCell>
        <mxCell id="Bvw_2WkxBIfK0Tm7wsNR-44" value="int *pb" style="rounded=1;whiteSpace=wrap;html=1;strokeWidth=3;fillColor=#1ba1e2;fontColor=#ffffff;strokeColor=#006EAF;fontSize=16;align=left;spacingLeft=5;" vertex="1" parent="Bvw_2WkxBIfK0Tm7wsNR-42">
          <mxGeometry width="160" height="40" as="geometry" />
        </mxCell>
        <mxCell id="Bvw_2WkxBIfK0Tm7wsNR-45" value="" style="ellipse;whiteSpace=wrap;html=1;aspect=fixed;strokeColor=none;fillColor=#5ebdec;" vertex="1" parent="Bvw_2WkxBIfK0Tm7wsNR-42">
          <mxGeometry x="129.99666666666667" y="11.428571428571427" width="17.142857142857142" height="17.142857142857142" as="geometry" />
        </mxCell>
        <mxCell id="Bvw_2WkxBIfK0Tm7wsNR-46" value="0x643" style="rounded=1;whiteSpace=wrap;html=1;fillColor=#00CCCC;strokeColor=none;fontSize=16;fontColor=#FFFFFF;" vertex="1" parent="Bvw_2WkxBIfK0Tm7wsNR-42">
          <mxGeometry x="58.4" y="5" width="61.6" height="30" as="geometry" />
        </mxCell>
        <mxCell id="Bvw_2WkxBIfK0Tm7wsNR-47" value="&lt;font style=&quot;font-size: 15px;&quot; color=&quot;#ffffff&quot;&gt;0x437&lt;/font&gt;" style="text;strokeColor=none;align=center;fillColor=none;html=1;verticalAlign=middle;whiteSpace=wrap;rounded=0;" vertex="1" parent="1">
          <mxGeometry x="500" y="-240" width="60" height="30" as="geometry" />
        </mxCell>
        <mxCell id="Bvw_2WkxBIfK0Tm7wsNR-48" value="" style="group" vertex="1" connectable="0" parent="1">
          <mxGeometry x="970" y="-220" width="130" height="35" as="geometry" />
        </mxCell>
        <mxCell id="Bvw_2WkxBIfK0Tm7wsNR-49" value="int c" style="rounded=1;whiteSpace=wrap;html=1;strokeWidth=3;fillColor=#008a00;fontColor=#ffffff;strokeColor=#005700;fontSize=16;align=left;spacingLeft=5;" vertex="1" parent="Bvw_2WkxBIfK0Tm7wsNR-48">
          <mxGeometry width="130" height="35" as="geometry" />
        </mxCell>
        <mxCell id="Bvw_2WkxBIfK0Tm7wsNR-50" value="6" style="rounded=1;whiteSpace=wrap;html=1;fillColor=#1fa417;strokeColor=none;fontSize=16;fontColor=#FFFFFF;" vertex="1" parent="Bvw_2WkxBIfK0Tm7wsNR-48">
          <mxGeometry x="60" y="3.75" width="59.6" height="27.5" as="geometry" />
        </mxCell>
        <mxCell id="Bvw_2WkxBIfK0Tm7wsNR-51" style="edgeStyle=orthogonalEdgeStyle;rounded=0;orthogonalLoop=1;jettySize=auto;html=1;strokeWidth=7;strokeColor=#FFFFFF;entryX=1;entryY=0.5;entryDx=0;entryDy=0;" edge="1" parent="1" source="Bvw_2WkxBIfK0Tm7wsNR-39" target="Bvw_2WkxBIfK0Tm7wsNR-35">
          <mxGeometry relative="1" as="geometry">
            <mxPoint x="630" y="-200" as="targetPoint" />
          </mxGeometry>
        </mxCell>
        <mxCell id="Bvw_2WkxBIfK0Tm7wsNR-58" value="&lt;font style=&quot;font-size: 18px;&quot; face=&quot;Comic Sans MS&quot;&gt;MEMORY&lt;/font&gt;" style="rounded=0;whiteSpace=wrap;html=1;verticalAlign=top;strokeWidth=3;fillColor=#647687;strokeColor=#314354;fontColor=#ffffff;" vertex="1" parent="1">
          <mxGeometry x="1320" y="1720" width="740" height="270" as="geometry" />
        </mxCell>
        <mxCell id="Bvw_2WkxBIfK0Tm7wsNR-59" value="main function" style="rounded=1;whiteSpace=wrap;html=1;verticalAlign=top;align=left;spacingLeft=5;fillColor=#0050ef;strokeColor=#001DBC;fontColor=#ffffff;strokeWidth=2;fontSize=16;arcSize=3;" vertex="1" parent="1">
          <mxGeometry x="1340" y="1760" width="700" height="210" as="geometry" />
        </mxCell>
        <mxCell id="Bvw_2WkxBIfK0Tm7wsNR-60" value="&lt;font style=&quot;font-size: 18px;&quot;&gt;Templates&lt;br&gt;&lt;/font&gt;" style="rounded=0;whiteSpace=wrap;html=1;fillColor=#647687;strokeColor=#314354;strokeWidth=3;verticalAlign=top;fontColor=#ffffff;fontFamily=Comic Sans MS;" vertex="1" parent="1">
          <mxGeometry x="1320" y="2000" width="740" height="180" as="geometry" />
        </mxCell>
        <mxCell id="Bvw_2WkxBIfK0Tm7wsNR-61" value="" style="group" vertex="1" connectable="0" parent="1">
          <mxGeometry x="1646.4" y="2093.75" width="160" height="40" as="geometry" />
        </mxCell>
        <mxCell id="Bvw_2WkxBIfK0Tm7wsNR-62" value="int *a" style="rounded=1;whiteSpace=wrap;html=1;strokeWidth=3;fillColor=#1ba1e2;fontColor=#ffffff;strokeColor=#006EAF;fontSize=16;align=left;spacingLeft=5;" vertex="1" parent="Bvw_2WkxBIfK0Tm7wsNR-61">
          <mxGeometry width="160" height="40" as="geometry" />
        </mxCell>
        <mxCell id="Bvw_2WkxBIfK0Tm7wsNR-63" value="" style="ellipse;whiteSpace=wrap;html=1;aspect=fixed;strokeColor=none;fillColor=#5ebdec;" vertex="1" parent="Bvw_2WkxBIfK0Tm7wsNR-61">
          <mxGeometry x="129.99666666666667" y="11.428571428571427" width="17.142857142857142" height="17.142857142857142" as="geometry" />
        </mxCell>
        <mxCell id="Bvw_2WkxBIfK0Tm7wsNR-64" value="123" style="rounded=1;whiteSpace=wrap;html=1;fillColor=#00CCCC;strokeColor=none;fontSize=16;fontColor=#FFFFFF;" vertex="1" parent="Bvw_2WkxBIfK0Tm7wsNR-61">
          <mxGeometry x="58.4" y="5" width="61.6" height="30" as="geometry" />
        </mxCell>
        <mxCell id="Bvw_2WkxBIfK0Tm7wsNR-65" value="function" style="rounded=1;whiteSpace=wrap;html=1;verticalAlign=top;align=left;spacingLeft=5;fillColor=#0050ef;strokeColor=#001DBC;fontColor=#ffffff;strokeWidth=2;fontSize=16;arcSize=9;" vertex="1" parent="1">
          <mxGeometry x="1340" y="2040" width="160" height="80" as="geometry" />
        </mxCell>
        <mxCell id="Bvw_2WkxBIfK0Tm7wsNR-66" value="" style="group;fontColor=#ffffff;" vertex="1" connectable="0" parent="1">
          <mxGeometry x="1850" y="2030" width="170" height="95" as="geometry" />
        </mxCell>
        <mxCell id="Bvw_2WkxBIfK0Tm7wsNR-67" value="struct node" style="rounded=1;whiteSpace=wrap;html=1;strokeWidth=3;fillColor=#266bff;fontColor=#FFFFFF;strokeColor=#80a8ff;fontSize=16;arcSize=8;verticalAlign=top;" vertex="1" parent="Bvw_2WkxBIfK0Tm7wsNR-66">
          <mxGeometry width="170" height="90" as="geometry" />
        </mxCell>
        <mxCell id="Bvw_2WkxBIfK0Tm7wsNR-68" value="" style="group;fontColor=#ffffff;" vertex="1" connectable="0" parent="Bvw_2WkxBIfK0Tm7wsNR-66">
          <mxGeometry y="30.5" width="170" height="29" as="geometry" />
        </mxCell>
        <mxCell id="Bvw_2WkxBIfK0Tm7wsNR-69" value="int val" style="rounded=0;whiteSpace=wrap;html=1;fontFamily=Helvetica;fontSize=16;fontColor=#ffffff;fillColor=none;strokeWidth=2;strokeColor=#80a8ff;align=left;spacingLeft=5;" vertex="1" parent="Bvw_2WkxBIfK0Tm7wsNR-68">
          <mxGeometry width="170" height="29" as="geometry" />
        </mxCell>
        <mxCell id="Bvw_2WkxBIfK0Tm7wsNR-70" value="&lt;font style=&quot;font-size: 16px;&quot;&gt;123&lt;/font&gt;" style="rounded=1;whiteSpace=wrap;html=1;fontFamily=Helvetica;fontSize=11;fontColor=#ffffff;strokeColor=none;fillColor=#4280ff;" vertex="1" parent="Bvw_2WkxBIfK0Tm7wsNR-68">
          <mxGeometry x="112" y="3" width="53.46" height="21" as="geometry" />
        </mxCell>
        <mxCell id="Bvw_2WkxBIfK0Tm7wsNR-71" value="&lt;font style=&quot;font-size: 16px;&quot;&gt;struct node *next&lt;br&gt;&lt;/font&gt;" style="text;html=1;strokeColor=none;fillColor=none;align=left;verticalAlign=middle;whiteSpace=wrap;rounded=0;fontSize=11;fontFamily=Helvetica;fontColor=#FFFFFF;spacingLeft=5;" vertex="1" parent="Bvw_2WkxBIfK0Tm7wsNR-66">
          <mxGeometry y="59.5" width="160" height="30" as="geometry" />
        </mxCell>
        <mxCell id="Bvw_2WkxBIfK0Tm7wsNR-72" value="" style="ellipse;whiteSpace=wrap;html=1;aspect=fixed;fontFamily=Helvetica;fontSize=11;fontColor=default;strokeColor=none;fillColor=#4280ff;" vertex="1" parent="Bvw_2WkxBIfK0Tm7wsNR-66">
          <mxGeometry x="140" y="64.5" width="20" height="20" as="geometry" />
        </mxCell>
        <mxCell id="Bvw_2WkxBIfK0Tm7wsNR-73" value="" style="group" vertex="1" connectable="0" parent="1">
          <mxGeometry x="1840" y="2132.5" width="170" height="35" as="geometry" />
        </mxCell>
        <mxCell id="Bvw_2WkxBIfK0Tm7wsNR-74" value="struct node *curr" style="rounded=1;whiteSpace=wrap;html=1;strokeWidth=3;fillColor=#1ba1e2;fontColor=#ffffff;strokeColor=#006EAF;fontSize=16;align=left;spacingLeft=5;" vertex="1" parent="Bvw_2WkxBIfK0Tm7wsNR-73">
          <mxGeometry width="170" height="35" as="geometry" />
        </mxCell>
        <mxCell id="Bvw_2WkxBIfK0Tm7wsNR-75" value="" style="ellipse;whiteSpace=wrap;html=1;aspect=fixed;strokeColor=none;fillColor=#5ebdec;" vertex="1" parent="Bvw_2WkxBIfK0Tm7wsNR-73">
          <mxGeometry x="140" y="7.5" width="20" height="20" as="geometry" />
        </mxCell>
        <mxCell id="Bvw_2WkxBIfK0Tm7wsNR-76" value="" style="group" vertex="1" connectable="0" parent="1">
          <mxGeometry x="1340" y="2130" width="290" height="35" as="geometry" />
        </mxCell>
        <mxCell id="Bvw_2WkxBIfK0Tm7wsNR-77" value="int a[5]" style="rounded=1;whiteSpace=wrap;html=1;strokeWidth=3;fillColor=#008a00;fontColor=#ffffff;strokeColor=#005700;fontSize=16;align=left;spacingLeft=5;" vertex="1" parent="Bvw_2WkxBIfK0Tm7wsNR-76">
          <mxGeometry width="284" height="35" as="geometry" />
        </mxCell>
        <mxCell id="Bvw_2WkxBIfK0Tm7wsNR-78" value="" style="rounded=1;whiteSpace=wrap;html=1;fillColor=#1fa417;strokeColor=none;fontSize=16;fontColor=#FFFFFF;" vertex="1" parent="Bvw_2WkxBIfK0Tm7wsNR-76">
          <mxGeometry x="68" y="3.75" width="40" height="27.5" as="geometry" />
        </mxCell>
        <mxCell id="Bvw_2WkxBIfK0Tm7wsNR-79" value="" style="rounded=1;whiteSpace=wrap;html=1;fillColor=#1fa417;strokeColor=none;fontSize=16;fontColor=#FFFFFF;" vertex="1" parent="Bvw_2WkxBIfK0Tm7wsNR-76">
          <mxGeometry x="111" y="3.75" width="40" height="27.5" as="geometry" />
        </mxCell>
        <mxCell id="Bvw_2WkxBIfK0Tm7wsNR-80" value="" style="rounded=1;whiteSpace=wrap;html=1;fillColor=#1fa417;strokeColor=none;fontSize=16;fontColor=#FFFFFF;" vertex="1" parent="Bvw_2WkxBIfK0Tm7wsNR-76">
          <mxGeometry x="154" y="3.75" width="40" height="27.5" as="geometry" />
        </mxCell>
        <mxCell id="Bvw_2WkxBIfK0Tm7wsNR-81" value="" style="rounded=1;whiteSpace=wrap;html=1;fillColor=#1fa417;strokeColor=none;fontSize=16;fontColor=#FFFFFF;" vertex="1" parent="Bvw_2WkxBIfK0Tm7wsNR-76">
          <mxGeometry x="197" y="3.75" width="40" height="27.5" as="geometry" />
        </mxCell>
        <mxCell id="Bvw_2WkxBIfK0Tm7wsNR-82" value="" style="rounded=1;whiteSpace=wrap;html=1;fillColor=#1fa417;strokeColor=none;fontSize=16;fontColor=#FFFFFF;" vertex="1" parent="Bvw_2WkxBIfK0Tm7wsNR-76">
          <mxGeometry x="240" y="3.75" width="40" height="27.5" as="geometry" />
        </mxCell>
        <mxCell id="Bvw_2WkxBIfK0Tm7wsNR-83" value="" style="shape=cross;whiteSpace=wrap;html=1;rotation=45;fillColor=#ff0000;fontColor=#ffffff;strokeColor=#6F0000;" vertex="1" parent="1">
          <mxGeometry x="2020" y="2135" width="30" height="30" as="geometry" />
        </mxCell>
        <mxCell id="Bvw_2WkxBIfK0Tm7wsNR-84" value="" style="group" vertex="1" connectable="0" parent="1">
          <mxGeometry x="1640" y="2030" width="136.39999999999998" height="58.75" as="geometry" />
        </mxCell>
        <mxCell id="Bvw_2WkxBIfK0Tm7wsNR-85" value="" style="group" vertex="1" connectable="0" parent="Bvw_2WkxBIfK0Tm7wsNR-84">
          <mxGeometry x="6.399999999999977" y="23.75" width="130" height="35" as="geometry" />
        </mxCell>
        <mxCell id="Bvw_2WkxBIfK0Tm7wsNR-86" value="" style="group" vertex="1" connectable="0" parent="Bvw_2WkxBIfK0Tm7wsNR-85">
          <mxGeometry width="130" height="35" as="geometry" />
        </mxCell>
        <mxCell id="Bvw_2WkxBIfK0Tm7wsNR-87" value="int a" style="rounded=1;whiteSpace=wrap;html=1;strokeWidth=3;fillColor=#008a00;fontColor=#ffffff;strokeColor=#005700;fontSize=16;align=left;spacingLeft=5;" vertex="1" parent="Bvw_2WkxBIfK0Tm7wsNR-86">
          <mxGeometry width="130" height="35" as="geometry" />
        </mxCell>
        <mxCell id="Bvw_2WkxBIfK0Tm7wsNR-88" value="123" style="rounded=1;whiteSpace=wrap;html=1;fillColor=#1fa417;strokeColor=none;fontSize=16;fontColor=#FFFFFF;" vertex="1" parent="Bvw_2WkxBIfK0Tm7wsNR-86">
          <mxGeometry x="60" y="3.75" width="59.6" height="27.5" as="geometry" />
        </mxCell>
        <mxCell id="Bvw_2WkxBIfK0Tm7wsNR-89" value="&lt;font style=&quot;font-size: 15px;&quot; color=&quot;#ffffff&quot;&gt;0x437&lt;/font&gt;" style="text;strokeColor=none;align=center;fillColor=none;html=1;verticalAlign=middle;whiteSpace=wrap;rounded=0;" vertex="1" parent="Bvw_2WkxBIfK0Tm7wsNR-84">
          <mxGeometry width="60" height="30" as="geometry" />
        </mxCell>
        <mxCell id="Bvw_2WkxBIfK0Tm7wsNR-90" value="" style="group" vertex="1" connectable="0" parent="1">
          <mxGeometry x="1633" y="1800" width="136.39999999999998" height="58.75" as="geometry" />
        </mxCell>
        <mxCell id="Bvw_2WkxBIfK0Tm7wsNR-91" value="" style="group" vertex="1" connectable="0" parent="Bvw_2WkxBIfK0Tm7wsNR-90">
          <mxGeometry x="6.399999999999977" y="23.75" width="130" height="35" as="geometry" />
        </mxCell>
        <mxCell id="Bvw_2WkxBIfK0Tm7wsNR-92" value="" style="group" vertex="1" connectable="0" parent="Bvw_2WkxBIfK0Tm7wsNR-91">
          <mxGeometry width="130" height="35" as="geometry" />
        </mxCell>
        <mxCell id="Bvw_2WkxBIfK0Tm7wsNR-93" value="int a" style="rounded=1;whiteSpace=wrap;html=1;strokeWidth=3;fillColor=#008a00;fontColor=#ffffff;strokeColor=#005700;fontSize=16;align=left;spacingLeft=5;" vertex="1" parent="Bvw_2WkxBIfK0Tm7wsNR-92">
          <mxGeometry width="130" height="35" as="geometry" />
        </mxCell>
        <mxCell id="Bvw_2WkxBIfK0Tm7wsNR-94" value="234" style="rounded=1;whiteSpace=wrap;html=1;fillColor=#1fa417;strokeColor=none;fontSize=16;fontColor=#FFFFFF;" vertex="1" parent="Bvw_2WkxBIfK0Tm7wsNR-92">
          <mxGeometry x="60" y="3.75" width="59.6" height="27.5" as="geometry" />
        </mxCell>
        <mxCell id="Bvw_2WkxBIfK0Tm7wsNR-95" value="&lt;font style=&quot;font-size: 15px;&quot; color=&quot;#ffffff&quot;&gt;0x382&lt;/font&gt;" style="text;strokeColor=none;align=center;fillColor=none;html=1;verticalAlign=middle;whiteSpace=wrap;rounded=0;" vertex="1" parent="Bvw_2WkxBIfK0Tm7wsNR-90">
          <mxGeometry width="60" height="30" as="geometry" />
        </mxCell>
        <mxCell id="Bvw_2WkxBIfK0Tm7wsNR-96" value="" style="group" vertex="1" connectable="0" parent="1">
          <mxGeometry x="1633" y="1870" width="136.39999999999998" height="58.75" as="geometry" />
        </mxCell>
        <mxCell id="Bvw_2WkxBIfK0Tm7wsNR-97" value="" style="group" vertex="1" connectable="0" parent="Bvw_2WkxBIfK0Tm7wsNR-96">
          <mxGeometry x="6.399999999999977" y="23.75" width="130" height="35" as="geometry" />
        </mxCell>
        <mxCell id="Bvw_2WkxBIfK0Tm7wsNR-98" value="" style="group" vertex="1" connectable="0" parent="Bvw_2WkxBIfK0Tm7wsNR-97">
          <mxGeometry width="130" height="35" as="geometry" />
        </mxCell>
        <mxCell id="Bvw_2WkxBIfK0Tm7wsNR-99" value="int b" style="rounded=1;whiteSpace=wrap;html=1;strokeWidth=3;fillColor=#008a00;fontColor=#ffffff;strokeColor=#005700;fontSize=16;align=left;spacingLeft=5;" vertex="1" parent="Bvw_2WkxBIfK0Tm7wsNR-98">
          <mxGeometry width="130" height="35" as="geometry" />
        </mxCell>
        <mxCell id="Bvw_2WkxBIfK0Tm7wsNR-100" value="345" style="rounded=1;whiteSpace=wrap;html=1;fillColor=#1fa417;strokeColor=none;fontSize=16;fontColor=#FFFFFF;" vertex="1" parent="Bvw_2WkxBIfK0Tm7wsNR-98">
          <mxGeometry x="60" y="3.75" width="59.6" height="27.5" as="geometry" />
        </mxCell>
        <mxCell id="Bvw_2WkxBIfK0Tm7wsNR-101" value="&lt;font style=&quot;font-size: 15px;&quot; color=&quot;#ffffff&quot;&gt;0x839&lt;/font&gt;" style="text;strokeColor=none;align=center;fillColor=none;html=1;verticalAlign=middle;whiteSpace=wrap;rounded=0;" vertex="1" parent="Bvw_2WkxBIfK0Tm7wsNR-96">
          <mxGeometry width="60" height="30" as="geometry" />
        </mxCell>
        <mxCell id="Bvw_2WkxBIfK0Tm7wsNR-102" value="" style="group" vertex="1" connectable="0" parent="1">
          <mxGeometry x="1415" y="1830" width="160" height="40" as="geometry" />
        </mxCell>
        <mxCell id="Bvw_2WkxBIfK0Tm7wsNR-103" value="int *pa" style="rounded=1;whiteSpace=wrap;html=1;strokeWidth=3;fillColor=#1ba1e2;fontColor=#ffffff;strokeColor=#006EAF;fontSize=16;align=left;spacingLeft=5;" vertex="1" parent="Bvw_2WkxBIfK0Tm7wsNR-102">
          <mxGeometry width="160" height="40" as="geometry" />
        </mxCell>
        <mxCell id="Bvw_2WkxBIfK0Tm7wsNR-104" value="" style="ellipse;whiteSpace=wrap;html=1;aspect=fixed;strokeColor=none;fillColor=#5ebdec;" vertex="1" parent="Bvw_2WkxBIfK0Tm7wsNR-102">
          <mxGeometry x="129.99666666666667" y="11.428571428571427" width="17.142857142857142" height="17.142857142857142" as="geometry" />
        </mxCell>
        <mxCell id="Bvw_2WkxBIfK0Tm7wsNR-105" value="0x839" style="rounded=1;whiteSpace=wrap;html=1;fillColor=#00CCCC;strokeColor=none;fontSize=16;fontColor=#FFFFFF;" vertex="1" parent="Bvw_2WkxBIfK0Tm7wsNR-102">
          <mxGeometry x="58.4" y="5" width="61.6" height="30" as="geometry" />
        </mxCell>
        <mxCell id="Bvw_2WkxBIfK0Tm7wsNR-106" value="" style="group" vertex="1" connectable="0" parent="1">
          <mxGeometry x="1410" y="1890" width="160" height="40" as="geometry" />
        </mxCell>
        <mxCell id="Bvw_2WkxBIfK0Tm7wsNR-107" value="int *pb" style="rounded=1;whiteSpace=wrap;html=1;strokeWidth=3;fillColor=#1ba1e2;fontColor=#ffffff;strokeColor=#006EAF;fontSize=16;align=left;spacingLeft=5;" vertex="1" parent="Bvw_2WkxBIfK0Tm7wsNR-106">
          <mxGeometry width="160" height="40" as="geometry" />
        </mxCell>
        <mxCell id="Bvw_2WkxBIfK0Tm7wsNR-108" value="" style="ellipse;whiteSpace=wrap;html=1;aspect=fixed;strokeColor=none;fillColor=#5ebdec;" vertex="1" parent="Bvw_2WkxBIfK0Tm7wsNR-106">
          <mxGeometry x="129.99666666666667" y="11.428571428571427" width="17.142857142857142" height="17.142857142857142" as="geometry" />
        </mxCell>
        <mxCell id="Bvw_2WkxBIfK0Tm7wsNR-109" value="0x839" style="rounded=1;whiteSpace=wrap;html=1;fillColor=#00CCCC;strokeColor=none;fontSize=16;fontColor=#FFFFFF;" vertex="1" parent="Bvw_2WkxBIfK0Tm7wsNR-106">
          <mxGeometry x="58.4" y="5" width="61.6" height="30" as="geometry" />
        </mxCell>
        <mxCell id="Bvw_2WkxBIfK0Tm7wsNR-110" style="edgeStyle=orthogonalEdgeStyle;shape=connector;rounded=0;orthogonalLoop=1;jettySize=auto;html=1;entryX=0;entryY=0.5;entryDx=0;entryDy=0;labelBackgroundColor=default;strokeColor=#FFFFFF;strokeWidth=5;fontFamily=Helvetica;fontSize=11;fontColor=default;endArrow=classic;" edge="1" parent="1" source="Bvw_2WkxBIfK0Tm7wsNR-108" target="Bvw_2WkxBIfK0Tm7wsNR-99">
          <mxGeometry relative="1" as="geometry" />
        </mxCell>
        <mxCell id="Bvw_2WkxBIfK0Tm7wsNR-111" value="" style="group" vertex="1" connectable="0" parent="1">
          <mxGeometry x="1800" y="1870" width="136.39999999999998" height="58.75" as="geometry" />
        </mxCell>
        <mxCell id="Bvw_2WkxBIfK0Tm7wsNR-112" value="" style="group" vertex="1" connectable="0" parent="Bvw_2WkxBIfK0Tm7wsNR-111">
          <mxGeometry x="6.399999999999977" y="23.75" width="130" height="35" as="geometry" />
        </mxCell>
        <mxCell id="Bvw_2WkxBIfK0Tm7wsNR-113" value="" style="group" vertex="1" connectable="0" parent="Bvw_2WkxBIfK0Tm7wsNR-112">
          <mxGeometry width="130" height="35" as="geometry" />
        </mxCell>
        <mxCell id="Bvw_2WkxBIfK0Tm7wsNR-114" value="int c" style="rounded=1;whiteSpace=wrap;html=1;strokeWidth=3;fillColor=#008a00;fontColor=#ffffff;strokeColor=#005700;fontSize=16;align=left;spacingLeft=5;" vertex="1" parent="Bvw_2WkxBIfK0Tm7wsNR-113">
          <mxGeometry width="130" height="35" as="geometry" />
        </mxCell>
        <mxCell id="Bvw_2WkxBIfK0Tm7wsNR-115" value="6" style="rounded=1;whiteSpace=wrap;html=1;fillColor=#1fa417;strokeColor=none;fontSize=16;fontColor=#FFFFFF;" vertex="1" parent="Bvw_2WkxBIfK0Tm7wsNR-113">
          <mxGeometry x="60" y="3.75" width="59.6" height="27.5" as="geometry" />
        </mxCell>
        <mxCell id="Bvw_2WkxBIfK0Tm7wsNR-116" value="&lt;font style=&quot;font-size: 15px;&quot; color=&quot;#ffffff&quot;&gt;0x983&lt;/font&gt;" style="text;strokeColor=none;align=center;fillColor=none;html=1;verticalAlign=middle;whiteSpace=wrap;rounded=0;" vertex="1" parent="Bvw_2WkxBIfK0Tm7wsNR-111">
          <mxGeometry width="60" height="30" as="geometry" />
        </mxCell>
        <mxCell id="Bvw_2WkxBIfK0Tm7wsNR-117" style="edgeStyle=orthogonalEdgeStyle;shape=connector;rounded=0;orthogonalLoop=1;jettySize=auto;html=1;entryX=0;entryY=0.5;entryDx=0;entryDy=0;labelBackgroundColor=default;strokeColor=#FFFFFF;strokeWidth=5;fontFamily=Helvetica;fontSize=11;fontColor=default;endArrow=classic;" edge="1" parent="1" source="Bvw_2WkxBIfK0Tm7wsNR-104" target="Bvw_2WkxBIfK0Tm7wsNR-99">
          <mxGeometry relative="1" as="geometry" />
        </mxCell>
        <mxCell id="Bvw_2WkxBIfK0Tm7wsNR-120" style="edgeStyle=orthogonalEdgeStyle;rounded=0;orthogonalLoop=1;jettySize=auto;html=1;strokeColor=#FFFFFF;strokeWidth=7;align=center;verticalAlign=middle;fontFamily=Helvetica;fontSize=11;fontColor=default;labelBackgroundColor=default;endArrow=classic;" edge="1" parent="1" source="Bvw_2WkxBIfK0Tm7wsNR-118" target="Bvw_2WkxBIfK0Tm7wsNR-119">
          <mxGeometry relative="1" as="geometry" />
        </mxCell>
        <mxCell id="Bvw_2WkxBIfK0Tm7wsNR-118" value="Solution" style="text;html=1;align=center;verticalAlign=middle;resizable=0;points=[];autosize=1;strokeColor=none;fillColor=none;fontFamily=Helvetica;fontSize=11;fontColor=default;labelBackgroundColor=default;" vertex="1" parent="1">
          <mxGeometry x="1300" y="1678" width="60" height="30" as="geometry" />
        </mxCell>
        <mxCell id="Bvw_2WkxBIfK0Tm7wsNR-119" value="Todo" style="text;html=1;align=center;verticalAlign=middle;resizable=0;points=[];autosize=1;strokeColor=none;fillColor=none;fontFamily=Helvetica;fontSize=11;fontColor=default;labelBackgroundColor=default;" vertex="1" parent="1">
          <mxGeometry x="440" y="1678" width="50" height="30" as="geometry" />
        </mxCell>
        <mxCell id="Bvw_2WkxBIfK0Tm7wsNR-121" value="&lt;font style=&quot;font-size: 30px;&quot;&gt;Misc&lt;/font&gt;" style="text;html=1;align=center;verticalAlign=middle;resizable=0;points=[];autosize=1;strokeColor=none;fillColor=none;fontSize=11;fontFamily=Helvetica;fontColor=default;" vertex="1" parent="1">
          <mxGeometry x="390" y="-410" width="90" height="50" as="geometry" />
        </mxCell>
        <mxCell id="Bvw_2WkxBIfK0Tm7wsNR-122" value="&lt;font style=&quot;font-size: 18px;&quot; face=&quot;Comic Sans MS&quot;&gt;MEMORY&lt;/font&gt;" style="rounded=0;whiteSpace=wrap;html=1;verticalAlign=top;strokeWidth=3;fillColor=#647687;strokeColor=#314354;fontColor=#ffffff;" vertex="1" parent="1">
          <mxGeometry x="1300" y="2467" width="740" height="270" as="geometry" />
        </mxCell>
        <mxCell id="Bvw_2WkxBIfK0Tm7wsNR-123" value="main function" style="rounded=1;whiteSpace=wrap;html=1;verticalAlign=top;align=left;spacingLeft=5;fillColor=#0050ef;strokeColor=#001DBC;fontColor=#ffffff;strokeWidth=2;fontSize=16;arcSize=3;" vertex="1" parent="1">
          <mxGeometry x="1320" y="2507" width="700" height="210" as="geometry" />
        </mxCell>
        <mxCell id="Bvw_2WkxBIfK0Tm7wsNR-124" value="&lt;font style=&quot;font-size: 18px;&quot;&gt;Templates&lt;br&gt;&lt;/font&gt;" style="rounded=0;whiteSpace=wrap;html=1;fillColor=#647687;strokeColor=#314354;strokeWidth=3;verticalAlign=top;fontColor=#ffffff;fontFamily=Comic Sans MS;" vertex="1" parent="1">
          <mxGeometry x="1300" y="2747" width="740" height="180" as="geometry" />
        </mxCell>
        <mxCell id="Bvw_2WkxBIfK0Tm7wsNR-125" value="" style="group" vertex="1" connectable="0" parent="1">
          <mxGeometry x="1626.4" y="2840.75" width="160" height="40" as="geometry" />
        </mxCell>
        <mxCell id="Bvw_2WkxBIfK0Tm7wsNR-126" value="int *a" style="rounded=1;whiteSpace=wrap;html=1;strokeWidth=3;fillColor=#1ba1e2;fontColor=#ffffff;strokeColor=#006EAF;fontSize=16;align=left;spacingLeft=5;" vertex="1" parent="Bvw_2WkxBIfK0Tm7wsNR-125">
          <mxGeometry width="160" height="40" as="geometry" />
        </mxCell>
        <mxCell id="Bvw_2WkxBIfK0Tm7wsNR-127" value="" style="ellipse;whiteSpace=wrap;html=1;aspect=fixed;strokeColor=none;fillColor=#5ebdec;" vertex="1" parent="Bvw_2WkxBIfK0Tm7wsNR-125">
          <mxGeometry x="129.99666666666667" y="11.428571428571427" width="17.142857142857142" height="17.142857142857142" as="geometry" />
        </mxCell>
        <mxCell id="Bvw_2WkxBIfK0Tm7wsNR-128" value="123" style="rounded=1;whiteSpace=wrap;html=1;fillColor=#00CCCC;strokeColor=none;fontSize=16;fontColor=#FFFFFF;" vertex="1" parent="Bvw_2WkxBIfK0Tm7wsNR-125">
          <mxGeometry x="58.4" y="5" width="61.6" height="30" as="geometry" />
        </mxCell>
        <mxCell id="Bvw_2WkxBIfK0Tm7wsNR-129" value="function" style="rounded=1;whiteSpace=wrap;html=1;verticalAlign=top;align=left;spacingLeft=5;fillColor=#0050ef;strokeColor=#001DBC;fontColor=#ffffff;strokeWidth=2;fontSize=16;arcSize=9;" vertex="1" parent="1">
          <mxGeometry x="1320" y="2787" width="160" height="80" as="geometry" />
        </mxCell>
        <mxCell id="Bvw_2WkxBIfK0Tm7wsNR-130" value="" style="group;fontColor=#ffffff;" vertex="1" connectable="0" parent="1">
          <mxGeometry x="1830" y="2777" width="170" height="95" as="geometry" />
        </mxCell>
        <mxCell id="Bvw_2WkxBIfK0Tm7wsNR-131" value="struct node" style="rounded=1;whiteSpace=wrap;html=1;strokeWidth=3;fillColor=#266bff;fontColor=#FFFFFF;strokeColor=#80a8ff;fontSize=16;arcSize=8;verticalAlign=top;" vertex="1" parent="Bvw_2WkxBIfK0Tm7wsNR-130">
          <mxGeometry width="170" height="90" as="geometry" />
        </mxCell>
        <mxCell id="Bvw_2WkxBIfK0Tm7wsNR-132" value="" style="group;fontColor=#ffffff;" vertex="1" connectable="0" parent="Bvw_2WkxBIfK0Tm7wsNR-130">
          <mxGeometry y="30.5" width="170" height="29" as="geometry" />
        </mxCell>
        <mxCell id="Bvw_2WkxBIfK0Tm7wsNR-133" value="int val" style="rounded=0;whiteSpace=wrap;html=1;fontFamily=Helvetica;fontSize=16;fontColor=#ffffff;fillColor=none;strokeWidth=2;strokeColor=#80a8ff;align=left;spacingLeft=5;" vertex="1" parent="Bvw_2WkxBIfK0Tm7wsNR-132">
          <mxGeometry width="170" height="29" as="geometry" />
        </mxCell>
        <mxCell id="Bvw_2WkxBIfK0Tm7wsNR-134" value="&lt;font style=&quot;font-size: 16px;&quot;&gt;123&lt;/font&gt;" style="rounded=1;whiteSpace=wrap;html=1;fontFamily=Helvetica;fontSize=11;fontColor=#ffffff;strokeColor=none;fillColor=#4280ff;" vertex="1" parent="Bvw_2WkxBIfK0Tm7wsNR-132">
          <mxGeometry x="112" y="3" width="53.46" height="21" as="geometry" />
        </mxCell>
        <mxCell id="Bvw_2WkxBIfK0Tm7wsNR-135" value="&lt;font style=&quot;font-size: 16px;&quot;&gt;struct node *next&lt;br&gt;&lt;/font&gt;" style="text;html=1;strokeColor=none;fillColor=none;align=left;verticalAlign=middle;whiteSpace=wrap;rounded=0;fontSize=11;fontFamily=Helvetica;fontColor=#FFFFFF;spacingLeft=5;" vertex="1" parent="Bvw_2WkxBIfK0Tm7wsNR-130">
          <mxGeometry y="59.5" width="160" height="30" as="geometry" />
        </mxCell>
        <mxCell id="Bvw_2WkxBIfK0Tm7wsNR-136" value="" style="ellipse;whiteSpace=wrap;html=1;aspect=fixed;fontFamily=Helvetica;fontSize=11;fontColor=default;strokeColor=none;fillColor=#4280ff;" vertex="1" parent="Bvw_2WkxBIfK0Tm7wsNR-130">
          <mxGeometry x="140" y="64.5" width="20" height="20" as="geometry" />
        </mxCell>
        <mxCell id="Bvw_2WkxBIfK0Tm7wsNR-137" value="" style="group" vertex="1" connectable="0" parent="1">
          <mxGeometry x="1820" y="2879.5" width="170" height="35" as="geometry" />
        </mxCell>
        <mxCell id="Bvw_2WkxBIfK0Tm7wsNR-138" value="struct node *curr" style="rounded=1;whiteSpace=wrap;html=1;strokeWidth=3;fillColor=#1ba1e2;fontColor=#ffffff;strokeColor=#006EAF;fontSize=16;align=left;spacingLeft=5;" vertex="1" parent="Bvw_2WkxBIfK0Tm7wsNR-137">
          <mxGeometry width="170" height="35" as="geometry" />
        </mxCell>
        <mxCell id="Bvw_2WkxBIfK0Tm7wsNR-139" value="" style="ellipse;whiteSpace=wrap;html=1;aspect=fixed;strokeColor=none;fillColor=#5ebdec;" vertex="1" parent="Bvw_2WkxBIfK0Tm7wsNR-137">
          <mxGeometry x="140" y="7.5" width="20" height="20" as="geometry" />
        </mxCell>
        <mxCell id="Bvw_2WkxBIfK0Tm7wsNR-140" value="" style="group" vertex="1" connectable="0" parent="1">
          <mxGeometry x="1320" y="2877" width="290" height="35" as="geometry" />
        </mxCell>
        <mxCell id="Bvw_2WkxBIfK0Tm7wsNR-141" value="int a[5]" style="rounded=1;whiteSpace=wrap;html=1;strokeWidth=3;fillColor=#008a00;fontColor=#ffffff;strokeColor=#005700;fontSize=16;align=left;spacingLeft=5;" vertex="1" parent="Bvw_2WkxBIfK0Tm7wsNR-140">
          <mxGeometry width="284" height="35" as="geometry" />
        </mxCell>
        <mxCell id="Bvw_2WkxBIfK0Tm7wsNR-142" value="" style="rounded=1;whiteSpace=wrap;html=1;fillColor=#1fa417;strokeColor=none;fontSize=16;fontColor=#FFFFFF;" vertex="1" parent="Bvw_2WkxBIfK0Tm7wsNR-140">
          <mxGeometry x="68" y="3.75" width="40" height="27.5" as="geometry" />
        </mxCell>
        <mxCell id="Bvw_2WkxBIfK0Tm7wsNR-143" value="" style="rounded=1;whiteSpace=wrap;html=1;fillColor=#1fa417;strokeColor=none;fontSize=16;fontColor=#FFFFFF;" vertex="1" parent="Bvw_2WkxBIfK0Tm7wsNR-140">
          <mxGeometry x="111" y="3.75" width="40" height="27.5" as="geometry" />
        </mxCell>
        <mxCell id="Bvw_2WkxBIfK0Tm7wsNR-144" value="" style="rounded=1;whiteSpace=wrap;html=1;fillColor=#1fa417;strokeColor=none;fontSize=16;fontColor=#FFFFFF;" vertex="1" parent="Bvw_2WkxBIfK0Tm7wsNR-140">
          <mxGeometry x="154" y="3.75" width="40" height="27.5" as="geometry" />
        </mxCell>
        <mxCell id="Bvw_2WkxBIfK0Tm7wsNR-145" value="" style="rounded=1;whiteSpace=wrap;html=1;fillColor=#1fa417;strokeColor=none;fontSize=16;fontColor=#FFFFFF;" vertex="1" parent="Bvw_2WkxBIfK0Tm7wsNR-140">
          <mxGeometry x="197" y="3.75" width="40" height="27.5" as="geometry" />
        </mxCell>
        <mxCell id="Bvw_2WkxBIfK0Tm7wsNR-146" value="" style="rounded=1;whiteSpace=wrap;html=1;fillColor=#1fa417;strokeColor=none;fontSize=16;fontColor=#FFFFFF;" vertex="1" parent="Bvw_2WkxBIfK0Tm7wsNR-140">
          <mxGeometry x="240" y="3.75" width="40" height="27.5" as="geometry" />
        </mxCell>
        <mxCell id="Bvw_2WkxBIfK0Tm7wsNR-147" value="" style="shape=cross;whiteSpace=wrap;html=1;rotation=45;fillColor=#ff0000;fontColor=#ffffff;strokeColor=#6F0000;" vertex="1" parent="1">
          <mxGeometry x="2000" y="2882" width="30" height="30" as="geometry" />
        </mxCell>
        <mxCell id="Bvw_2WkxBIfK0Tm7wsNR-148" value="" style="group" vertex="1" connectable="0" parent="1">
          <mxGeometry x="1620" y="2777" width="136.39999999999998" height="58.75" as="geometry" />
        </mxCell>
        <mxCell id="Bvw_2WkxBIfK0Tm7wsNR-149" value="" style="group" vertex="1" connectable="0" parent="Bvw_2WkxBIfK0Tm7wsNR-148">
          <mxGeometry x="6.399999999999977" y="23.75" width="130" height="35" as="geometry" />
        </mxCell>
        <mxCell id="Bvw_2WkxBIfK0Tm7wsNR-150" value="" style="group" vertex="1" connectable="0" parent="Bvw_2WkxBIfK0Tm7wsNR-149">
          <mxGeometry width="130" height="35" as="geometry" />
        </mxCell>
        <mxCell id="Bvw_2WkxBIfK0Tm7wsNR-151" value="int a" style="rounded=1;whiteSpace=wrap;html=1;strokeWidth=3;fillColor=#008a00;fontColor=#ffffff;strokeColor=#005700;fontSize=16;align=left;spacingLeft=5;" vertex="1" parent="Bvw_2WkxBIfK0Tm7wsNR-150">
          <mxGeometry width="130" height="35" as="geometry" />
        </mxCell>
        <mxCell id="Bvw_2WkxBIfK0Tm7wsNR-152" value="123" style="rounded=1;whiteSpace=wrap;html=1;fillColor=#1fa417;strokeColor=none;fontSize=16;fontColor=#FFFFFF;" vertex="1" parent="Bvw_2WkxBIfK0Tm7wsNR-150">
          <mxGeometry x="60" y="3.75" width="59.6" height="27.5" as="geometry" />
        </mxCell>
        <mxCell id="Bvw_2WkxBIfK0Tm7wsNR-153" value="&lt;font style=&quot;font-size: 15px;&quot; color=&quot;#ffffff&quot;&gt;0x437&lt;/font&gt;" style="text;strokeColor=none;align=center;fillColor=none;html=1;verticalAlign=middle;whiteSpace=wrap;rounded=0;" vertex="1" parent="Bvw_2WkxBIfK0Tm7wsNR-148">
          <mxGeometry width="60" height="30" as="geometry" />
        </mxCell>
        <mxCell id="Bvw_2WkxBIfK0Tm7wsNR-154" value="" style="group" vertex="1" connectable="0" parent="1">
          <mxGeometry x="1340" y="2550" width="136.39999999999998" height="58.75" as="geometry" />
        </mxCell>
        <mxCell id="Bvw_2WkxBIfK0Tm7wsNR-155" value="" style="group" vertex="1" connectable="0" parent="Bvw_2WkxBIfK0Tm7wsNR-154">
          <mxGeometry x="6.399999999999977" y="23.75" width="130" height="35" as="geometry" />
        </mxCell>
        <mxCell id="Bvw_2WkxBIfK0Tm7wsNR-156" value="" style="group" vertex="1" connectable="0" parent="Bvw_2WkxBIfK0Tm7wsNR-155">
          <mxGeometry width="130" height="35" as="geometry" />
        </mxCell>
        <mxCell id="Bvw_2WkxBIfK0Tm7wsNR-157" value="int a" style="rounded=1;whiteSpace=wrap;html=1;strokeWidth=3;fillColor=#008a00;fontColor=#ffffff;strokeColor=#005700;fontSize=16;align=left;spacingLeft=5;" vertex="1" parent="Bvw_2WkxBIfK0Tm7wsNR-156">
          <mxGeometry width="130" height="35" as="geometry" />
        </mxCell>
        <mxCell id="Bvw_2WkxBIfK0Tm7wsNR-158" value="5" style="rounded=1;whiteSpace=wrap;html=1;fillColor=#1fa417;strokeColor=none;fontSize=16;fontColor=#FFFFFF;" vertex="1" parent="Bvw_2WkxBIfK0Tm7wsNR-156">
          <mxGeometry x="60" y="3.75" width="59.6" height="27.5" as="geometry" />
        </mxCell>
        <mxCell id="Bvw_2WkxBIfK0Tm7wsNR-159" value="&lt;font style=&quot;font-size: 15px;&quot; color=&quot;#ffffff&quot;&gt;0x437&lt;/font&gt;" style="text;strokeColor=none;align=center;fillColor=none;html=1;verticalAlign=middle;whiteSpace=wrap;rounded=0;" vertex="1" parent="Bvw_2WkxBIfK0Tm7wsNR-154">
          <mxGeometry width="60" height="30" as="geometry" />
        </mxCell>
        <mxCell id="Bvw_2WkxBIfK0Tm7wsNR-160" value="" style="group" vertex="1" connectable="0" parent="1">
          <mxGeometry x="1340" y="2630" width="136.39999999999998" height="58.75" as="geometry" />
        </mxCell>
        <mxCell id="Bvw_2WkxBIfK0Tm7wsNR-161" value="" style="group" vertex="1" connectable="0" parent="Bvw_2WkxBIfK0Tm7wsNR-160">
          <mxGeometry x="6.399999999999977" y="23.75" width="130" height="35" as="geometry" />
        </mxCell>
        <mxCell id="Bvw_2WkxBIfK0Tm7wsNR-162" value="" style="group" vertex="1" connectable="0" parent="Bvw_2WkxBIfK0Tm7wsNR-161">
          <mxGeometry width="130" height="35" as="geometry" />
        </mxCell>
        <mxCell id="Bvw_2WkxBIfK0Tm7wsNR-163" value="int b" style="rounded=1;whiteSpace=wrap;html=1;strokeWidth=3;fillColor=#008a00;fontColor=#ffffff;strokeColor=#005700;fontSize=16;align=left;spacingLeft=5;" vertex="1" parent="Bvw_2WkxBIfK0Tm7wsNR-162">
          <mxGeometry width="130" height="35" as="geometry" />
        </mxCell>
        <mxCell id="Bvw_2WkxBIfK0Tm7wsNR-164" value="7" style="rounded=1;whiteSpace=wrap;html=1;fillColor=#1fa417;strokeColor=none;fontSize=16;fontColor=#FFFFFF;" vertex="1" parent="Bvw_2WkxBIfK0Tm7wsNR-162">
          <mxGeometry x="60" y="3.75" width="59.6" height="27.5" as="geometry" />
        </mxCell>
        <mxCell id="Bvw_2WkxBIfK0Tm7wsNR-165" value="&lt;font style=&quot;font-size: 15px;&quot; color=&quot;#ffffff&quot;&gt;0x389&lt;/font&gt;" style="text;strokeColor=none;align=center;fillColor=none;html=1;verticalAlign=middle;whiteSpace=wrap;rounded=0;" vertex="1" parent="Bvw_2WkxBIfK0Tm7wsNR-160">
          <mxGeometry width="60" height="30" as="geometry" />
        </mxCell>
        <mxCell id="Bvw_2WkxBIfK0Tm7wsNR-166" value="void swap(int a, int b)" style="rounded=1;whiteSpace=wrap;html=1;verticalAlign=top;align=left;spacingLeft=5;fillColor=#0050ef;strokeColor=#001DBC;fontColor=#ffffff;strokeWidth=2;fontSize=16;arcSize=9;" vertex="1" parent="1">
          <mxGeometry x="1545" y="2560" width="275" height="150" as="geometry" />
        </mxCell>
        <mxCell id="Bvw_2WkxBIfK0Tm7wsNR-167" value="" style="group" vertex="1" connectable="0" parent="1">
          <mxGeometry x="1550" y="2580" width="136.39999999999998" height="58.75" as="geometry" />
        </mxCell>
        <mxCell id="Bvw_2WkxBIfK0Tm7wsNR-168" value="" style="group" vertex="1" connectable="0" parent="Bvw_2WkxBIfK0Tm7wsNR-167">
          <mxGeometry x="6.399999999999977" y="23.75" width="130" height="35" as="geometry" />
        </mxCell>
        <mxCell id="Bvw_2WkxBIfK0Tm7wsNR-169" value="" style="group" vertex="1" connectable="0" parent="Bvw_2WkxBIfK0Tm7wsNR-168">
          <mxGeometry width="130" height="35" as="geometry" />
        </mxCell>
        <mxCell id="Bvw_2WkxBIfK0Tm7wsNR-170" value="int a" style="rounded=1;whiteSpace=wrap;html=1;strokeWidth=3;fillColor=#008a00;fontColor=#ffffff;strokeColor=#005700;fontSize=16;align=left;spacingLeft=5;" vertex="1" parent="Bvw_2WkxBIfK0Tm7wsNR-169">
          <mxGeometry width="130" height="35" as="geometry" />
        </mxCell>
        <mxCell id="Bvw_2WkxBIfK0Tm7wsNR-171" value="7" style="rounded=1;whiteSpace=wrap;html=1;fillColor=#1fa417;strokeColor=none;fontSize=16;fontColor=#FFFFFF;" vertex="1" parent="Bvw_2WkxBIfK0Tm7wsNR-169">
          <mxGeometry x="60" y="3.75" width="59.6" height="27.5" as="geometry" />
        </mxCell>
        <mxCell id="Bvw_2WkxBIfK0Tm7wsNR-172" value="&lt;font style=&quot;font-size: 15px;&quot; color=&quot;#ffffff&quot;&gt;0x334&lt;/font&gt;" style="text;strokeColor=none;align=center;fillColor=none;html=1;verticalAlign=middle;whiteSpace=wrap;rounded=0;" vertex="1" parent="Bvw_2WkxBIfK0Tm7wsNR-167">
          <mxGeometry width="60" height="30" as="geometry" />
        </mxCell>
        <mxCell id="Bvw_2WkxBIfK0Tm7wsNR-173" value="" style="group" vertex="1" connectable="0" parent="1">
          <mxGeometry x="1550" y="2640" width="136.39999999999998" height="58.75" as="geometry" />
        </mxCell>
        <mxCell id="Bvw_2WkxBIfK0Tm7wsNR-174" value="" style="group" vertex="1" connectable="0" parent="Bvw_2WkxBIfK0Tm7wsNR-173">
          <mxGeometry x="6.399999999999977" y="23.75" width="130" height="35" as="geometry" />
        </mxCell>
        <mxCell id="Bvw_2WkxBIfK0Tm7wsNR-175" value="" style="group" vertex="1" connectable="0" parent="Bvw_2WkxBIfK0Tm7wsNR-174">
          <mxGeometry width="130" height="35" as="geometry" />
        </mxCell>
        <mxCell id="Bvw_2WkxBIfK0Tm7wsNR-176" value="int b" style="rounded=1;whiteSpace=wrap;html=1;strokeWidth=3;fillColor=#008a00;fontColor=#ffffff;strokeColor=#005700;fontSize=16;align=left;spacingLeft=5;" vertex="1" parent="Bvw_2WkxBIfK0Tm7wsNR-175">
          <mxGeometry width="130" height="35" as="geometry" />
        </mxCell>
        <mxCell id="Bvw_2WkxBIfK0Tm7wsNR-177" value="5" style="rounded=1;whiteSpace=wrap;html=1;fillColor=#1fa417;strokeColor=none;fontSize=16;fontColor=#FFFFFF;" vertex="1" parent="Bvw_2WkxBIfK0Tm7wsNR-175">
          <mxGeometry x="60" y="3.75" width="59.6" height="27.5" as="geometry" />
        </mxCell>
        <mxCell id="Bvw_2WkxBIfK0Tm7wsNR-178" value="&lt;font style=&quot;font-size: 15px;&quot; color=&quot;#ffffff&quot;&gt;0x745&lt;/font&gt;" style="text;strokeColor=none;align=center;fillColor=none;html=1;verticalAlign=middle;whiteSpace=wrap;rounded=0;" vertex="1" parent="Bvw_2WkxBIfK0Tm7wsNR-173">
          <mxGeometry width="60" height="30" as="geometry" />
        </mxCell>
        <mxCell id="Bvw_2WkxBIfK0Tm7wsNR-179" value="" style="group" vertex="1" connectable="0" parent="1">
          <mxGeometry x="1700" y="2630" width="136.39999999999998" height="58.75" as="geometry" />
        </mxCell>
        <mxCell id="Bvw_2WkxBIfK0Tm7wsNR-180" value="" style="group" vertex="1" connectable="0" parent="Bvw_2WkxBIfK0Tm7wsNR-179">
          <mxGeometry x="6.399999999999977" y="23.75" width="130" height="35" as="geometry" />
        </mxCell>
        <mxCell id="Bvw_2WkxBIfK0Tm7wsNR-181" value="" style="group" vertex="1" connectable="0" parent="Bvw_2WkxBIfK0Tm7wsNR-180">
          <mxGeometry width="130" height="35" as="geometry" />
        </mxCell>
        <mxCell id="Bvw_2WkxBIfK0Tm7wsNR-182" value="int temp" style="rounded=1;whiteSpace=wrap;html=1;strokeWidth=3;fillColor=#008a00;fontColor=#ffffff;strokeColor=#005700;fontSize=16;align=left;spacingLeft=5;" vertex="1" parent="Bvw_2WkxBIfK0Tm7wsNR-181">
          <mxGeometry width="130" height="35" as="geometry" />
        </mxCell>
        <mxCell id="Bvw_2WkxBIfK0Tm7wsNR-183" value="5" style="rounded=1;whiteSpace=wrap;html=1;fillColor=#1fa417;strokeColor=none;fontSize=16;fontColor=#FFFFFF;" vertex="1" parent="Bvw_2WkxBIfK0Tm7wsNR-181">
          <mxGeometry x="60" y="3.75" width="59.6" height="27.5" as="geometry" />
        </mxCell>
        <mxCell id="Bvw_2WkxBIfK0Tm7wsNR-184" value="&lt;font style=&quot;font-size: 15px;&quot; color=&quot;#ffffff&quot;&gt;0x923&lt;/font&gt;" style="text;strokeColor=none;align=center;fillColor=none;html=1;verticalAlign=middle;whiteSpace=wrap;rounded=0;" vertex="1" parent="Bvw_2WkxBIfK0Tm7wsNR-179">
          <mxGeometry width="60" height="30" as="geometry" />
        </mxCell>
        <mxCell id="Bvw_2WkxBIfK0Tm7wsNR-185" value="Solution" style="text;html=1;align=center;verticalAlign=middle;resizable=0;points=[];autosize=1;strokeColor=none;fillColor=none;fontFamily=Helvetica;fontSize=11;fontColor=default;labelBackgroundColor=default;" vertex="1" parent="1">
          <mxGeometry x="1295" y="2420" width="60" height="30" as="geometry" />
        </mxCell>
        <mxCell id="Bvw_2WkxBIfK0Tm7wsNR-186" value="Todo" style="text;html=1;align=center;verticalAlign=middle;resizable=0;points=[];autosize=1;strokeColor=none;fillColor=none;fontFamily=Helvetica;fontSize=11;fontColor=default;labelBackgroundColor=default;" vertex="1" parent="1">
          <mxGeometry x="435" y="2420" width="50" height="30" as="geometry" />
        </mxCell>
        <mxCell id="Bvw_2WkxBIfK0Tm7wsNR-187" value="void swap(int a, int b)" style="rounded=1;whiteSpace=wrap;html=1;verticalAlign=top;align=left;spacingLeft=5;fillColor=#0050ef;strokeColor=#001DBC;fontColor=#ffffff;strokeWidth=2;fontSize=16;arcSize=9;" vertex="1" parent="1">
          <mxGeometry x="720" y="3103" width="370" height="150" as="geometry" />
        </mxCell>
        <mxCell id="Bvw_2WkxBIfK0Tm7wsNR-188" value="" style="group" vertex="1" connectable="0" parent="1">
          <mxGeometry x="740.0000000000001" y="3140" width="160" height="40" as="geometry" />
        </mxCell>
        <mxCell id="Bvw_2WkxBIfK0Tm7wsNR-189" value="int *pa" style="rounded=1;whiteSpace=wrap;html=1;strokeWidth=3;fillColor=#1ba1e2;fontColor=#ffffff;strokeColor=#006EAF;fontSize=16;align=left;spacingLeft=5;" vertex="1" parent="Bvw_2WkxBIfK0Tm7wsNR-188">
          <mxGeometry width="160" height="40" as="geometry" />
        </mxCell>
        <mxCell id="Bvw_2WkxBIfK0Tm7wsNR-190" value="" style="ellipse;whiteSpace=wrap;html=1;aspect=fixed;strokeColor=none;fillColor=#5ebdec;" vertex="1" parent="Bvw_2WkxBIfK0Tm7wsNR-188">
          <mxGeometry x="129.99666666666667" y="11.428571428571427" width="17.142857142857142" height="17.142857142857142" as="geometry" />
        </mxCell>
        <mxCell id="Bvw_2WkxBIfK0Tm7wsNR-191" value="" style="rounded=1;whiteSpace=wrap;html=1;fillColor=#00CCCC;strokeColor=none;fontSize=16;fontColor=#FFFFFF;" vertex="1" parent="Bvw_2WkxBIfK0Tm7wsNR-188">
          <mxGeometry x="58.4" y="5" width="61.6" height="30" as="geometry" />
        </mxCell>
        <mxCell id="Bvw_2WkxBIfK0Tm7wsNR-192" value="" style="group" vertex="1" connectable="0" parent="1">
          <mxGeometry x="740.0000000000001" y="3200" width="160" height="40" as="geometry" />
        </mxCell>
        <mxCell id="Bvw_2WkxBIfK0Tm7wsNR-193" value="int *pb" style="rounded=1;whiteSpace=wrap;html=1;strokeWidth=3;fillColor=#1ba1e2;fontColor=#ffffff;strokeColor=#006EAF;fontSize=16;align=left;spacingLeft=5;" vertex="1" parent="Bvw_2WkxBIfK0Tm7wsNR-192">
          <mxGeometry width="160" height="40" as="geometry" />
        </mxCell>
        <mxCell id="Bvw_2WkxBIfK0Tm7wsNR-194" value="" style="ellipse;whiteSpace=wrap;html=1;aspect=fixed;strokeColor=none;fillColor=#5ebdec;" vertex="1" parent="Bvw_2WkxBIfK0Tm7wsNR-192">
          <mxGeometry x="129.99666666666667" y="11.428571428571427" width="17.142857142857142" height="17.142857142857142" as="geometry" />
        </mxCell>
        <mxCell id="Bvw_2WkxBIfK0Tm7wsNR-195" value="" style="rounded=1;whiteSpace=wrap;html=1;fillColor=#00CCCC;strokeColor=none;fontSize=16;fontColor=#FFFFFF;" vertex="1" parent="Bvw_2WkxBIfK0Tm7wsNR-192">
          <mxGeometry x="58.4" y="5" width="61.6" height="30" as="geometry" />
        </mxCell>
        <mxCell id="Bvw_2WkxBIfK0Tm7wsNR-206" value="" style="group" vertex="1" connectable="0" parent="1">
          <mxGeometry x="910" y="3180" width="160" height="58.75" as="geometry" />
        </mxCell>
        <mxCell id="Bvw_2WkxBIfK0Tm7wsNR-207" value="" style="group" vertex="1" connectable="0" parent="Bvw_2WkxBIfK0Tm7wsNR-206">
          <mxGeometry x="7.04" y="23.75" width="152.96" height="35" as="geometry" />
        </mxCell>
        <mxCell id="Bvw_2WkxBIfK0Tm7wsNR-208" value="" style="group" vertex="1" connectable="0" parent="Bvw_2WkxBIfK0Tm7wsNR-207">
          <mxGeometry width="152.96" height="35" as="geometry" />
        </mxCell>
        <mxCell id="Bvw_2WkxBIfK0Tm7wsNR-209" value="int temp" style="rounded=1;whiteSpace=wrap;html=1;strokeWidth=3;fillColor=#008a00;fontColor=#ffffff;strokeColor=#005700;fontSize=16;align=left;spacingLeft=5;" vertex="1" parent="Bvw_2WkxBIfK0Tm7wsNR-208">
          <mxGeometry width="152.96" height="35" as="geometry" />
        </mxCell>
        <mxCell id="Bvw_2WkxBIfK0Tm7wsNR-210" value="" style="rounded=1;whiteSpace=wrap;html=1;fillColor=#1fa417;strokeColor=none;fontSize=16;fontColor=#FFFFFF;" vertex="1" parent="Bvw_2WkxBIfK0Tm7wsNR-208">
          <mxGeometry x="72.95698622358975" y="3.75" width="70.12627692307693" height="27.5" as="geometry" />
        </mxCell>
        <mxCell id="Bvw_2WkxBIfK0Tm7wsNR-211" value="&lt;font style=&quot;font-size: 15px;&quot; color=&quot;#ffffff&quot;&gt;0x923&lt;/font&gt;" style="text;strokeColor=none;align=center;fillColor=none;html=1;verticalAlign=middle;whiteSpace=wrap;rounded=0;" vertex="1" parent="Bvw_2WkxBIfK0Tm7wsNR-206">
          <mxGeometry width="65.98240469208211" height="30" as="geometry" />
        </mxCell>
        <mxCell id="Bvw_2WkxBIfK0Tm7wsNR-212" value="&lt;font style=&quot;font-size: 18px;&quot; face=&quot;Comic Sans MS&quot;&gt;MEMORY&lt;/font&gt;" style="rounded=0;whiteSpace=wrap;html=1;verticalAlign=top;strokeWidth=3;fillColor=#647687;strokeColor=#314354;fontColor=#ffffff;" vertex="1" parent="1">
          <mxGeometry x="1300" y="3020" width="740" height="270" as="geometry" />
        </mxCell>
        <mxCell id="Bvw_2WkxBIfK0Tm7wsNR-213" value="main function" style="rounded=1;whiteSpace=wrap;html=1;verticalAlign=top;align=left;spacingLeft=5;fillColor=#0050ef;strokeColor=#001DBC;fontColor=#ffffff;strokeWidth=2;fontSize=16;arcSize=3;" vertex="1" parent="1">
          <mxGeometry x="1320" y="3060" width="700" height="210" as="geometry" />
        </mxCell>
        <mxCell id="Bvw_2WkxBIfK0Tm7wsNR-214" value="&lt;font style=&quot;font-size: 18px;&quot;&gt;Templates&lt;br&gt;&lt;/font&gt;" style="rounded=0;whiteSpace=wrap;html=1;fillColor=#647687;strokeColor=#314354;strokeWidth=3;verticalAlign=top;fontColor=#ffffff;fontFamily=Comic Sans MS;" vertex="1" parent="1">
          <mxGeometry x="1300" y="3300" width="740" height="180" as="geometry" />
        </mxCell>
        <mxCell id="Bvw_2WkxBIfK0Tm7wsNR-215" value="" style="group" vertex="1" connectable="0" parent="1">
          <mxGeometry x="1626.4" y="3393.75" width="160" height="40" as="geometry" />
        </mxCell>
        <mxCell id="Bvw_2WkxBIfK0Tm7wsNR-216" value="int *a" style="rounded=1;whiteSpace=wrap;html=1;strokeWidth=3;fillColor=#1ba1e2;fontColor=#ffffff;strokeColor=#006EAF;fontSize=16;align=left;spacingLeft=5;" vertex="1" parent="Bvw_2WkxBIfK0Tm7wsNR-215">
          <mxGeometry width="160" height="40" as="geometry" />
        </mxCell>
        <mxCell id="Bvw_2WkxBIfK0Tm7wsNR-217" value="" style="ellipse;whiteSpace=wrap;html=1;aspect=fixed;strokeColor=none;fillColor=#5ebdec;" vertex="1" parent="Bvw_2WkxBIfK0Tm7wsNR-215">
          <mxGeometry x="129.99666666666667" y="11.428571428571427" width="17.142857142857142" height="17.142857142857142" as="geometry" />
        </mxCell>
        <mxCell id="Bvw_2WkxBIfK0Tm7wsNR-218" value="123" style="rounded=1;whiteSpace=wrap;html=1;fillColor=#00CCCC;strokeColor=none;fontSize=16;fontColor=#FFFFFF;" vertex="1" parent="Bvw_2WkxBIfK0Tm7wsNR-215">
          <mxGeometry x="58.4" y="5" width="61.6" height="30" as="geometry" />
        </mxCell>
        <mxCell id="Bvw_2WkxBIfK0Tm7wsNR-219" value="function" style="rounded=1;whiteSpace=wrap;html=1;verticalAlign=top;align=left;spacingLeft=5;fillColor=#0050ef;strokeColor=#001DBC;fontColor=#ffffff;strokeWidth=2;fontSize=16;arcSize=9;" vertex="1" parent="1">
          <mxGeometry x="1320" y="3340" width="160" height="80" as="geometry" />
        </mxCell>
        <mxCell id="Bvw_2WkxBIfK0Tm7wsNR-220" value="" style="group;fontColor=#ffffff;" vertex="1" connectable="0" parent="1">
          <mxGeometry x="1830" y="3330" width="170" height="95" as="geometry" />
        </mxCell>
        <mxCell id="Bvw_2WkxBIfK0Tm7wsNR-221" value="struct node" style="rounded=1;whiteSpace=wrap;html=1;strokeWidth=3;fillColor=#266bff;fontColor=#FFFFFF;strokeColor=#80a8ff;fontSize=16;arcSize=8;verticalAlign=top;" vertex="1" parent="Bvw_2WkxBIfK0Tm7wsNR-220">
          <mxGeometry width="170" height="90" as="geometry" />
        </mxCell>
        <mxCell id="Bvw_2WkxBIfK0Tm7wsNR-222" value="" style="group;fontColor=#ffffff;" vertex="1" connectable="0" parent="Bvw_2WkxBIfK0Tm7wsNR-220">
          <mxGeometry y="30.5" width="170" height="29" as="geometry" />
        </mxCell>
        <mxCell id="Bvw_2WkxBIfK0Tm7wsNR-223" value="int val" style="rounded=0;whiteSpace=wrap;html=1;fontFamily=Helvetica;fontSize=16;fontColor=#ffffff;fillColor=none;strokeWidth=2;strokeColor=#80a8ff;align=left;spacingLeft=5;" vertex="1" parent="Bvw_2WkxBIfK0Tm7wsNR-222">
          <mxGeometry width="170" height="29" as="geometry" />
        </mxCell>
        <mxCell id="Bvw_2WkxBIfK0Tm7wsNR-224" value="&lt;font style=&quot;font-size: 16px;&quot;&gt;123&lt;/font&gt;" style="rounded=1;whiteSpace=wrap;html=1;fontFamily=Helvetica;fontSize=11;fontColor=#ffffff;strokeColor=none;fillColor=#4280ff;" vertex="1" parent="Bvw_2WkxBIfK0Tm7wsNR-222">
          <mxGeometry x="112" y="3" width="53.46" height="21" as="geometry" />
        </mxCell>
        <mxCell id="Bvw_2WkxBIfK0Tm7wsNR-225" value="&lt;font style=&quot;font-size: 16px;&quot;&gt;struct node *next&lt;br&gt;&lt;/font&gt;" style="text;html=1;strokeColor=none;fillColor=none;align=left;verticalAlign=middle;whiteSpace=wrap;rounded=0;fontSize=11;fontFamily=Helvetica;fontColor=#FFFFFF;spacingLeft=5;" vertex="1" parent="Bvw_2WkxBIfK0Tm7wsNR-220">
          <mxGeometry y="59.5" width="160" height="30" as="geometry" />
        </mxCell>
        <mxCell id="Bvw_2WkxBIfK0Tm7wsNR-226" value="" style="ellipse;whiteSpace=wrap;html=1;aspect=fixed;fontFamily=Helvetica;fontSize=11;fontColor=default;strokeColor=none;fillColor=#4280ff;" vertex="1" parent="Bvw_2WkxBIfK0Tm7wsNR-220">
          <mxGeometry x="140" y="64.5" width="20" height="20" as="geometry" />
        </mxCell>
        <mxCell id="Bvw_2WkxBIfK0Tm7wsNR-227" value="" style="group" vertex="1" connectable="0" parent="1">
          <mxGeometry x="1820" y="3432.5" width="170" height="35" as="geometry" />
        </mxCell>
        <mxCell id="Bvw_2WkxBIfK0Tm7wsNR-228" value="struct node *curr" style="rounded=1;whiteSpace=wrap;html=1;strokeWidth=3;fillColor=#1ba1e2;fontColor=#ffffff;strokeColor=#006EAF;fontSize=16;align=left;spacingLeft=5;" vertex="1" parent="Bvw_2WkxBIfK0Tm7wsNR-227">
          <mxGeometry width="170" height="35" as="geometry" />
        </mxCell>
        <mxCell id="Bvw_2WkxBIfK0Tm7wsNR-229" value="" style="ellipse;whiteSpace=wrap;html=1;aspect=fixed;strokeColor=none;fillColor=#5ebdec;" vertex="1" parent="Bvw_2WkxBIfK0Tm7wsNR-227">
          <mxGeometry x="140" y="7.5" width="20" height="20" as="geometry" />
        </mxCell>
        <mxCell id="Bvw_2WkxBIfK0Tm7wsNR-230" value="" style="group" vertex="1" connectable="0" parent="1">
          <mxGeometry x="1320" y="3430" width="290" height="35" as="geometry" />
        </mxCell>
        <mxCell id="Bvw_2WkxBIfK0Tm7wsNR-231" value="int a[5]" style="rounded=1;whiteSpace=wrap;html=1;strokeWidth=3;fillColor=#008a00;fontColor=#ffffff;strokeColor=#005700;fontSize=16;align=left;spacingLeft=5;" vertex="1" parent="Bvw_2WkxBIfK0Tm7wsNR-230">
          <mxGeometry width="284" height="35" as="geometry" />
        </mxCell>
        <mxCell id="Bvw_2WkxBIfK0Tm7wsNR-232" value="" style="rounded=1;whiteSpace=wrap;html=1;fillColor=#1fa417;strokeColor=none;fontSize=16;fontColor=#FFFFFF;" vertex="1" parent="Bvw_2WkxBIfK0Tm7wsNR-230">
          <mxGeometry x="68" y="3.75" width="40" height="27.5" as="geometry" />
        </mxCell>
        <mxCell id="Bvw_2WkxBIfK0Tm7wsNR-233" value="" style="rounded=1;whiteSpace=wrap;html=1;fillColor=#1fa417;strokeColor=none;fontSize=16;fontColor=#FFFFFF;" vertex="1" parent="Bvw_2WkxBIfK0Tm7wsNR-230">
          <mxGeometry x="111" y="3.75" width="40" height="27.5" as="geometry" />
        </mxCell>
        <mxCell id="Bvw_2WkxBIfK0Tm7wsNR-234" value="" style="rounded=1;whiteSpace=wrap;html=1;fillColor=#1fa417;strokeColor=none;fontSize=16;fontColor=#FFFFFF;" vertex="1" parent="Bvw_2WkxBIfK0Tm7wsNR-230">
          <mxGeometry x="154" y="3.75" width="40" height="27.5" as="geometry" />
        </mxCell>
        <mxCell id="Bvw_2WkxBIfK0Tm7wsNR-235" value="" style="rounded=1;whiteSpace=wrap;html=1;fillColor=#1fa417;strokeColor=none;fontSize=16;fontColor=#FFFFFF;" vertex="1" parent="Bvw_2WkxBIfK0Tm7wsNR-230">
          <mxGeometry x="197" y="3.75" width="40" height="27.5" as="geometry" />
        </mxCell>
        <mxCell id="Bvw_2WkxBIfK0Tm7wsNR-236" value="" style="rounded=1;whiteSpace=wrap;html=1;fillColor=#1fa417;strokeColor=none;fontSize=16;fontColor=#FFFFFF;" vertex="1" parent="Bvw_2WkxBIfK0Tm7wsNR-230">
          <mxGeometry x="240" y="3.75" width="40" height="27.5" as="geometry" />
        </mxCell>
        <mxCell id="Bvw_2WkxBIfK0Tm7wsNR-237" value="" style="shape=cross;whiteSpace=wrap;html=1;rotation=45;fillColor=#ff0000;fontColor=#ffffff;strokeColor=#6F0000;" vertex="1" parent="1">
          <mxGeometry x="2000" y="3435" width="30" height="30" as="geometry" />
        </mxCell>
        <mxCell id="Bvw_2WkxBIfK0Tm7wsNR-238" value="" style="group" vertex="1" connectable="0" parent="1">
          <mxGeometry x="1620" y="3330" width="136.39999999999998" height="58.75" as="geometry" />
        </mxCell>
        <mxCell id="Bvw_2WkxBIfK0Tm7wsNR-239" value="" style="group" vertex="1" connectable="0" parent="Bvw_2WkxBIfK0Tm7wsNR-238">
          <mxGeometry x="6.399999999999977" y="23.75" width="130" height="35" as="geometry" />
        </mxCell>
        <mxCell id="Bvw_2WkxBIfK0Tm7wsNR-240" value="" style="group" vertex="1" connectable="0" parent="Bvw_2WkxBIfK0Tm7wsNR-239">
          <mxGeometry width="130" height="35" as="geometry" />
        </mxCell>
        <mxCell id="Bvw_2WkxBIfK0Tm7wsNR-241" value="int a" style="rounded=1;whiteSpace=wrap;html=1;strokeWidth=3;fillColor=#008a00;fontColor=#ffffff;strokeColor=#005700;fontSize=16;align=left;spacingLeft=5;" vertex="1" parent="Bvw_2WkxBIfK0Tm7wsNR-240">
          <mxGeometry width="130" height="35" as="geometry" />
        </mxCell>
        <mxCell id="Bvw_2WkxBIfK0Tm7wsNR-242" value="123" style="rounded=1;whiteSpace=wrap;html=1;fillColor=#1fa417;strokeColor=none;fontSize=16;fontColor=#FFFFFF;" vertex="1" parent="Bvw_2WkxBIfK0Tm7wsNR-240">
          <mxGeometry x="60" y="3.75" width="59.6" height="27.5" as="geometry" />
        </mxCell>
        <mxCell id="Bvw_2WkxBIfK0Tm7wsNR-243" value="&lt;font style=&quot;font-size: 15px;&quot; color=&quot;#ffffff&quot;&gt;0x437&lt;/font&gt;" style="text;strokeColor=none;align=center;fillColor=none;html=1;verticalAlign=middle;whiteSpace=wrap;rounded=0;" vertex="1" parent="Bvw_2WkxBIfK0Tm7wsNR-238">
          <mxGeometry width="60" height="30" as="geometry" />
        </mxCell>
        <mxCell id="Bvw_2WkxBIfK0Tm7wsNR-244" value="" style="group" vertex="1" connectable="0" parent="1">
          <mxGeometry x="1340" y="3103" width="136.39999999999998" height="58.75" as="geometry" />
        </mxCell>
        <mxCell id="Bvw_2WkxBIfK0Tm7wsNR-245" value="" style="group" vertex="1" connectable="0" parent="Bvw_2WkxBIfK0Tm7wsNR-244">
          <mxGeometry x="6.399999999999977" y="23.75" width="130" height="35" as="geometry" />
        </mxCell>
        <mxCell id="Bvw_2WkxBIfK0Tm7wsNR-246" value="" style="group" vertex="1" connectable="0" parent="Bvw_2WkxBIfK0Tm7wsNR-245">
          <mxGeometry width="130" height="35" as="geometry" />
        </mxCell>
        <mxCell id="Bvw_2WkxBIfK0Tm7wsNR-247" value="int a" style="rounded=1;whiteSpace=wrap;html=1;strokeWidth=3;fillColor=#008a00;fontColor=#ffffff;strokeColor=#005700;fontSize=16;align=left;spacingLeft=5;" vertex="1" parent="Bvw_2WkxBIfK0Tm7wsNR-246">
          <mxGeometry width="130" height="35" as="geometry" />
        </mxCell>
        <mxCell id="Bvw_2WkxBIfK0Tm7wsNR-248" value="7" style="rounded=1;whiteSpace=wrap;html=1;fillColor=#1fa417;strokeColor=none;fontSize=16;fontColor=#FFFFFF;" vertex="1" parent="Bvw_2WkxBIfK0Tm7wsNR-246">
          <mxGeometry x="60" y="3.75" width="59.6" height="27.5" as="geometry" />
        </mxCell>
        <mxCell id="Bvw_2WkxBIfK0Tm7wsNR-249" value="&lt;font style=&quot;font-size: 15px;&quot; color=&quot;#ffffff&quot;&gt;0x437&lt;/font&gt;" style="text;strokeColor=none;align=center;fillColor=none;html=1;verticalAlign=middle;whiteSpace=wrap;rounded=0;" vertex="1" parent="Bvw_2WkxBIfK0Tm7wsNR-244">
          <mxGeometry width="60" height="30" as="geometry" />
        </mxCell>
        <mxCell id="Bvw_2WkxBIfK0Tm7wsNR-250" value="" style="group" vertex="1" connectable="0" parent="1">
          <mxGeometry x="1340" y="3183" width="136.39999999999998" height="58.75" as="geometry" />
        </mxCell>
        <mxCell id="Bvw_2WkxBIfK0Tm7wsNR-251" value="" style="group" vertex="1" connectable="0" parent="Bvw_2WkxBIfK0Tm7wsNR-250">
          <mxGeometry x="6.399999999999977" y="23.75" width="130" height="35" as="geometry" />
        </mxCell>
        <mxCell id="Bvw_2WkxBIfK0Tm7wsNR-252" value="" style="group" vertex="1" connectable="0" parent="Bvw_2WkxBIfK0Tm7wsNR-251">
          <mxGeometry width="130" height="35" as="geometry" />
        </mxCell>
        <mxCell id="Bvw_2WkxBIfK0Tm7wsNR-253" value="int b" style="rounded=1;whiteSpace=wrap;html=1;strokeWidth=3;fillColor=#008a00;fontColor=#ffffff;strokeColor=#005700;fontSize=16;align=left;spacingLeft=5;" vertex="1" parent="Bvw_2WkxBIfK0Tm7wsNR-252">
          <mxGeometry width="130" height="35" as="geometry" />
        </mxCell>
        <mxCell id="Bvw_2WkxBIfK0Tm7wsNR-254" value="5" style="rounded=1;whiteSpace=wrap;html=1;fillColor=#1fa417;strokeColor=none;fontSize=16;fontColor=#FFFFFF;" vertex="1" parent="Bvw_2WkxBIfK0Tm7wsNR-252">
          <mxGeometry x="60" y="3.75" width="59.6" height="27.5" as="geometry" />
        </mxCell>
        <mxCell id="Bvw_2WkxBIfK0Tm7wsNR-255" value="&lt;font style=&quot;font-size: 15px;&quot; color=&quot;#ffffff&quot;&gt;0x389&lt;/font&gt;" style="text;strokeColor=none;align=center;fillColor=none;html=1;verticalAlign=middle;whiteSpace=wrap;rounded=0;" vertex="1" parent="Bvw_2WkxBIfK0Tm7wsNR-250">
          <mxGeometry width="60" height="30" as="geometry" />
        </mxCell>
        <mxCell id="Bvw_2WkxBIfK0Tm7wsNR-256" value="void swap(int a, int b)" style="rounded=1;whiteSpace=wrap;html=1;verticalAlign=top;align=left;spacingLeft=5;fillColor=#0050ef;strokeColor=#001DBC;fontColor=#ffffff;strokeWidth=2;fontSize=16;arcSize=9;" vertex="1" parent="1">
          <mxGeometry x="1570" y="3103" width="370" height="150" as="geometry" />
        </mxCell>
        <mxCell id="Bvw_2WkxBIfK0Tm7wsNR-257" value="" style="group" vertex="1" connectable="0" parent="1">
          <mxGeometry x="1590" y="3140" width="160" height="40" as="geometry" />
        </mxCell>
        <mxCell id="Bvw_2WkxBIfK0Tm7wsNR-258" value="int *pa" style="rounded=1;whiteSpace=wrap;html=1;strokeWidth=3;fillColor=#1ba1e2;fontColor=#ffffff;strokeColor=#006EAF;fontSize=16;align=left;spacingLeft=5;" vertex="1" parent="Bvw_2WkxBIfK0Tm7wsNR-257">
          <mxGeometry width="160" height="40" as="geometry" />
        </mxCell>
        <mxCell id="Bvw_2WkxBIfK0Tm7wsNR-259" value="" style="ellipse;whiteSpace=wrap;html=1;aspect=fixed;strokeColor=none;fillColor=#5ebdec;" vertex="1" parent="Bvw_2WkxBIfK0Tm7wsNR-257">
          <mxGeometry x="129.99666666666667" y="11.428571428571427" width="17.142857142857142" height="17.142857142857142" as="geometry" />
        </mxCell>
        <mxCell id="Bvw_2WkxBIfK0Tm7wsNR-260" value="0x437" style="rounded=1;whiteSpace=wrap;html=1;fillColor=#00CCCC;strokeColor=none;fontSize=16;fontColor=#FFFFFF;" vertex="1" parent="Bvw_2WkxBIfK0Tm7wsNR-257">
          <mxGeometry x="58.4" y="5" width="61.6" height="30" as="geometry" />
        </mxCell>
        <mxCell id="Bvw_2WkxBIfK0Tm7wsNR-261" value="" style="group" vertex="1" connectable="0" parent="1">
          <mxGeometry x="1590" y="3200" width="160" height="40" as="geometry" />
        </mxCell>
        <mxCell id="Bvw_2WkxBIfK0Tm7wsNR-262" value="int *pb" style="rounded=1;whiteSpace=wrap;html=1;strokeWidth=3;fillColor=#1ba1e2;fontColor=#ffffff;strokeColor=#006EAF;fontSize=16;align=left;spacingLeft=5;" vertex="1" parent="Bvw_2WkxBIfK0Tm7wsNR-261">
          <mxGeometry width="160" height="40" as="geometry" />
        </mxCell>
        <mxCell id="Bvw_2WkxBIfK0Tm7wsNR-263" value="" style="ellipse;whiteSpace=wrap;html=1;aspect=fixed;strokeColor=none;fillColor=#5ebdec;" vertex="1" parent="Bvw_2WkxBIfK0Tm7wsNR-261">
          <mxGeometry x="129.99666666666667" y="11.428571428571427" width="17.142857142857142" height="17.142857142857142" as="geometry" />
        </mxCell>
        <mxCell id="Bvw_2WkxBIfK0Tm7wsNR-264" value="0x389" style="rounded=1;whiteSpace=wrap;html=1;fillColor=#00CCCC;strokeColor=none;fontSize=16;fontColor=#FFFFFF;" vertex="1" parent="Bvw_2WkxBIfK0Tm7wsNR-261">
          <mxGeometry x="58.4" y="5" width="61.6" height="30" as="geometry" />
        </mxCell>
        <mxCell id="Bvw_2WkxBIfK0Tm7wsNR-265" style="edgeStyle=orthogonalEdgeStyle;rounded=0;orthogonalLoop=1;jettySize=auto;html=1;strokeColor=#FFFFFF;strokeWidth=7;align=center;verticalAlign=middle;fontFamily=Helvetica;fontSize=11;fontColor=default;labelBackgroundColor=default;endArrow=classic;" edge="1" parent="1" source="Bvw_2WkxBIfK0Tm7wsNR-259" target="Bvw_2WkxBIfK0Tm7wsNR-247">
          <mxGeometry relative="1" as="geometry">
            <Array as="points">
              <mxPoint x="1729" y="3190" />
              <mxPoint x="1540" y="3190" />
              <mxPoint x="1540" y="3144" />
            </Array>
          </mxGeometry>
        </mxCell>
        <mxCell id="Bvw_2WkxBIfK0Tm7wsNR-266" style="edgeStyle=orthogonalEdgeStyle;rounded=0;orthogonalLoop=1;jettySize=auto;html=1;strokeColor=#FFFFFF;strokeWidth=7;align=center;verticalAlign=middle;fontFamily=Helvetica;fontSize=11;fontColor=default;labelBackgroundColor=default;endArrow=classic;" edge="1" parent="1" source="Bvw_2WkxBIfK0Tm7wsNR-263" target="Bvw_2WkxBIfK0Tm7wsNR-253">
          <mxGeometry relative="1" as="geometry">
            <Array as="points">
              <mxPoint x="1729" y="3260" />
              <mxPoint x="1540" y="3260" />
              <mxPoint x="1540" y="3224" />
            </Array>
          </mxGeometry>
        </mxCell>
        <mxCell id="Bvw_2WkxBIfK0Tm7wsNR-267" value="" style="group" vertex="1" connectable="0" parent="1">
          <mxGeometry x="1760" y="3180" width="160" height="58.75" as="geometry" />
        </mxCell>
        <mxCell id="Bvw_2WkxBIfK0Tm7wsNR-268" value="" style="group" vertex="1" connectable="0" parent="Bvw_2WkxBIfK0Tm7wsNR-267">
          <mxGeometry x="7.04" y="23.75" width="152.96" height="35" as="geometry" />
        </mxCell>
        <mxCell id="Bvw_2WkxBIfK0Tm7wsNR-269" value="" style="group" vertex="1" connectable="0" parent="Bvw_2WkxBIfK0Tm7wsNR-268">
          <mxGeometry width="152.96" height="35" as="geometry" />
        </mxCell>
        <mxCell id="Bvw_2WkxBIfK0Tm7wsNR-270" value="int temp" style="rounded=1;whiteSpace=wrap;html=1;strokeWidth=3;fillColor=#008a00;fontColor=#ffffff;strokeColor=#005700;fontSize=16;align=left;spacingLeft=5;" vertex="1" parent="Bvw_2WkxBIfK0Tm7wsNR-269">
          <mxGeometry width="152.96" height="35" as="geometry" />
        </mxCell>
        <mxCell id="Bvw_2WkxBIfK0Tm7wsNR-271" value="5" style="rounded=1;whiteSpace=wrap;html=1;fillColor=#1fa417;strokeColor=none;fontSize=16;fontColor=#FFFFFF;" vertex="1" parent="Bvw_2WkxBIfK0Tm7wsNR-269">
          <mxGeometry x="72.95698622358975" y="3.75" width="70.12627692307693" height="27.5" as="geometry" />
        </mxCell>
        <mxCell id="Bvw_2WkxBIfK0Tm7wsNR-272" value="&lt;font style=&quot;font-size: 15px;&quot; color=&quot;#ffffff&quot;&gt;0x923&lt;/font&gt;" style="text;strokeColor=none;align=center;fillColor=none;html=1;verticalAlign=middle;whiteSpace=wrap;rounded=0;" vertex="1" parent="Bvw_2WkxBIfK0Tm7wsNR-267">
          <mxGeometry width="65.98240469208211" height="30" as="geometry" />
        </mxCell>
      </root>
    </mxGraphModel>
  </diagram>
</mxfile>
